<svg id="LIVE2_32" xmlns="http://www.w3.org/2000/svg" width="32" height="32" viewBox="0 0 32 32">
  <rect id="LAYER" width="32" height="32" fill="rgba(229,0,19,0)" opacity="0.3"/>
  <g id="LIVE2_32-2" data-name="LIVE2_32">
    <path id="Caminho_38" data-name="Caminho 38" d="M13.72,13.56v7.89l6.37-3.95Z" fill="#231916"/>
    <path id="Caminho_39" data-name="Caminho 39" d="M25.46,10.53a1.9,1.9,0,0,0-1.35-.52h-6.3L19.83,7.9,18.97,7l-2.89,3.01h-.17L13.03,7l-.87.9,2.02,2.11H7.88a1.855,1.855,0,0,0-1.35.52A1.756,1.756,0,0,0,6,11.84V23.17a1.742,1.742,0,0,0,.54,1.31A1.839,1.839,0,0,0,7.89,25H24.12a1.855,1.855,0,0,0,1.35-.52A1.756,1.756,0,0,0,26,23.17V11.84A1.727,1.727,0,0,0,25.46,10.53Zm-17.57.63H24.12a.667.667,0,0,1,.48.22.611.611,0,0,1,.22.46V23.17a.611.611,0,0,1-.22.46.667.667,0,0,1-.48.22H7.89a.667.667,0,0,1-.48-.22.611.611,0,0,1-.22-.46V11.84a.626.626,0,0,1,.22-.46A.635.635,0,0,1,7.89,11.16Z" fill="#231916"/>
  </g>
</svg>
