<?xml version="1.0" encoding="UTF-8"?><svg id="_레이어_2" xmlns="http://www.w3.org/2000/svg" viewBox="0 0 572.76 97.03"><defs><style>.cls-1{fill:#fff;}</style></defs><g id="Camada_1"><g><path class="cls-1" d="M37.55,97.03L0,0H3.37L39.65,94.35,75.93,0h3.37L41.76,97.03h-4.22Z"/><path class="cls-1" d="M344.94,97.03h-3.65c-2.11-6.19-4.36-11.81-6.05-25.87-1.27-10.83-6.19-20.95-18-21.51-3.09-.14-6.61-.14-8.86-.14h-22.64v47.53h-3.09V0h23.48c4.92,0,9.42,.14,13.92,.7,15.05,1.83,23.48,9.84,23.48,23.76,0,12.37-7.59,21.37-20.25,23.63,9,2.53,13.92,11.11,15.18,22.36,1.69,14.48,3.8,20.53,6.47,26.58Zm-36.56-50.48c3.65,0,6.04,0,10.54-.28,13.22-.99,21.24-9.56,21.24-21.66s-7.45-19.27-20.67-20.95c-4.5-.56-8.29-.7-13.36-.7h-20.39V46.55h22.64Z"/><path class="cls-1" d="M419.2,97.03V0h3.09V97.03h-3.09Z"/><g><polygon class="cls-1" points="151.17 49.92 156.27 49.92 204.19 49.92 204.19 47.11 151.17 47.11 151.17 2.81 207 2.81 207 0 148.08 0 148.08 49.92 151.17 49.92"/><polygon class="cls-1" points="151.17 94.22 151.17 94.21 148.08 94.21 148.08 97.03 208.4 97.03 208.4 94.22 151.17 94.22"/></g><polygon class="cls-1" points="535.21 0 531.13 0 493.59 97.03 496.82 97.03 511.3 59.2 511.32 59.2 512.46 56.25 512.43 56.25 533.1 2.67 553.49 56.25 533.1 56.25 533.1 59.2 554.76 59.2 569.38 97.03 572.76 97.03 535.21 0"/></g></g></svg>