 <svg
            xmlns="http://www.w3.org/2000/svg"
            width="35"
            height="24"
            viewBox="0 0 35 24"
          >
            <defs></defs>
            <g fill="#fff" stroke="#bbb">
              <rect stroke="none" width="35" height="24" rx="2"></rect>
              <rect
                fill="none"
                x="0.5"
                y="0.5"
                width="34"
                height="23"
                rx="1.5"
              ></rect>
            </g>
            <g transform="translate(5.635 3.788)">
              <g transform="translate(0 9.457)">
                <path
                  fill="#9e9e9e"
                  d="M192.929,413.851c0,.382.272.425.515.425a1.379,1.379,0,0,0,1.421-1.545,1.487,1.487,0,0,0-1.549-1.594c-.2,0-.3.014-.387.019Zm-.485-2.323c0-.446-.233-.416-.455-.42v-.129c.193.009.391.009.584.009s.491-.009.857-.009a1.8,1.8,0,0,1,1.981,1.733c0,.491-.288,1.724-2.04,1.724-.252,0-.486-.01-.718-.01s-.441.005-.664.01v-.128c.3-.03.441-.04.455-.376Z"
                  transform="translate(-191.973 -410.651)"
                ></path>
                <path
                  fill="#9e9e9e"
                  d="M227.76,410.926a.243.243,0,0,1,0-.486.242.242,0,0,1,.243.238.248.248,0,0,1-.243.248m-.53,2.9h.094c.139,0,.238,0,.238-.164v-1.342c0-.217-.074-.248-.258-.347v-.08c.233-.07.51-.163.529-.178a.181.181,0,0,1,.09-.025c.024,0,.035.03.035.069v1.9c0,.164.109.164.248.164h.084v.129c-.168,0-.342-.01-.519-.01s-.357.005-.54.01Z"
                  transform="translate(-223.618 -410.166)"
                ></path>
                <path
                  fill="#9e9e9e"
                  d="M239.365,423.338c0-.183-.055-.233-.287-.326v-.094a6.857,6.857,0,0,0,.654-.238c.015,0,.03.01.03.049v.322a1.45,1.45,0,0,1,.858-.371c.42,0,.569.307.569.694v1.277c0,.164.109.164.248.164h.09v.129c-.174,0-.347-.01-.525-.01s-.357.005-.535.01v-.129h.09c.139,0,.238,0,.238-.164v-1.282c0-.283-.172-.421-.455-.421a1.321,1.321,0,0,0-.575.238v1.466c0,.164.109.164.248.164h.089v.129c-.173,0-.347-.01-.525-.01s-.356.005-.535.01v-.129h.09c.139,0,.238,0,.238-.164v-1.313Z"
                  transform="translate(-234.223 -421.157)"
                ></path>
                <path
                  fill="#9e9e9e"
                  d="M264.492,423.426c.123,0,.138-.064.138-.124a.419.419,0,0,0-.43-.455c-.3,0-.51.222-.569.579Zm-.876.159a1.216,1.216,0,0,0,0,.288.828.828,0,0,0,.727.857.954.954,0,0,0,.669-.331l.069.069a1.161,1.161,0,0,1-.916.56,1,1,0,0,1-.946-1.08c0-.971.654-1.258,1-1.258a.787.787,0,0,1,.837.777.531.531,0,0,1-.005.09l-.045.03h-1.391Z"
                  transform="translate(-255.937 -421.166)"
                ></path>
                <path
                  fill="#9e9e9e"
                  d="M282.34,424.8h.134c.138,0,.238,0,.238-.164V423.24c0-.153-.183-.184-.257-.223v-.074c.361-.154.56-.283.6-.283.029,0,.044.015.044.064v.446h.01c.123-.193.331-.51.633-.51a.27.27,0,0,1,.283.262.241.241,0,0,1-.233.253c-.154,0-.154-.119-.327-.119a.419.419,0,0,0-.361.412v1.165c0,.164.1.164.238.164h.277v.129c-.272-.005-.479-.01-.693-.01s-.411.005-.59.01v-.13Z"
                  transform="translate(-273.107 -421.139)"
                ></path>
                <path
                  fill="#9e9e9e"
                  d="M300.249,424.245a.653.653,0,0,0,.624.6.35.35,0,0,0,.4-.352c0-.585-1.079-.4-1.079-1.193a.681.681,0,0,1,.768-.634,1.3,1.3,0,0,1,.564.144l.035.5h-.114a.507.507,0,0,0-.54-.49.348.348,0,0,0-.386.326c0,.579,1.149.4,1.149,1.179,0,.326-.262.674-.852.674a1.3,1.3,0,0,1-.6-.168l-.055-.569Z"
                  transform="translate(-289.109 -421.148)"
                ></path>
                <path
                  fill="#9e9e9e"
                  d="M331.546,411.22h-.123a.941.941,0,0,0-1.06-.812,1.412,1.412,0,0,0-1.4,1.57,1.613,1.613,0,0,0,1.476,1.719,1.007,1.007,0,0,0,1-.857l.114.03-.114.723a2.788,2.788,0,0,1-1.1.263,1.762,1.762,0,0,1-1.891-1.863,1.82,1.82,0,0,1,1.877-1.743,3.58,3.58,0,0,1,1.169.263Z"
                  transform="translate(-314.514 -409.995)"
                ></path>
                <path
                  fill="#9e9e9e"
                  d="M360.56,411.407h.094c.139,0,.238,0,.238-.164v-2.758c0-.322-.074-.331-.262-.387v-.08a3.108,3.108,0,0,0,.51-.213.539.539,0,0,1,.108-.055c.031,0,.04.03.04.069v3.424c0,.164.109.164.248.164h.084v.129c-.168,0-.341-.01-.519-.01s-.356.005-.54.01Z"
                  transform="translate(-343.348 -407.75)"
                ></path>
                <path
                  fill="#9e9e9e"
                  d="M373.061,425.308c0,.09.054.094.138.094.06,0,.134-.005.2-.005v.1a5.051,5.051,0,0,0-.714.153l-.024-.015v-.4a1.337,1.337,0,0,1-.877.416.534.534,0,0,1-.545-.59V423.8c0-.129-.019-.253-.3-.277v-.094c.179-.005.573-.035.639-.035s.055.035.055.144v1.277c0,.149,0,.574.43.574a1.1,1.1,0,0,0,.6-.3v-1.332c0-.1-.238-.153-.415-.2v-.089c.446-.031.723-.069.772-.069s.04.035.04.089v1.829Z"
                  transform="translate(-352.67 -421.795)"
                ></path>
                <path
                  fill="#9e9e9e"
                  d="M395.58,410.994a.533.533,0,0,0,.51.5c.529,0,.753-.52.753-.961a.945.945,0,0,0-.792-.98.768.768,0,0,0-.471.233Zm0-1.347a1.251,1.251,0,0,1,.737-.357.965.965,0,0,1,.921,1.04,1.251,1.251,0,0,1-1.184,1.3,1.468,1.468,0,0,1-.689-.173l-.148.114-.1-.054a5.859,5.859,0,0,0,.069-.881V408.5c0-.322-.074-.332-.263-.387v-.079a3.1,3.1,0,0,0,.51-.213.538.538,0,0,1,.109-.055c.03,0,.04.031.04.069v1.807Z"
                  transform="translate(-374.204 -407.768)"
                ></path>
                <path
                  fill="#9e9e9e"
                  d="M191.93,457.25h.038c.1,0,.2-.013.2-.154v-1.412c0-.141-.1-.154-.2-.154h-.038v-.081c.105,0,.267.011.4.011s.3-.011.423-.011v.081h-.038c-.1,0-.2.013-.2.154V457.1c0,.141.1.154.2.154h.038v.081c-.13,0-.292-.01-.425-.01s-.292.01-.4.01Z"
                  transform="translate(-191.919 -450.585)"
                ></path>
                <path
                  fill="#9e9e9e"
                  d="M192.641,457.212v-.057h-.025c-.1,0-.211-.017-.211-.165v-1.412c0-.149.115-.165.211-.165h.025v-.057c-.124,0-.28.011-.411.011s-.283-.01-.388-.011v.057h.025c.1,0,.211.016.211.165v1.412c0,.149-.114.165-.211.165h-.025v.057c.1,0,.257-.011.385-.011s.288.01.414.011m.012.022c-.131,0-.292-.011-.425-.011s-.291.011-.4.011h-.012v-.1h.05c.1,0,.187-.01.188-.142v-1.412c0-.132-.09-.141-.188-.142h-.049v-.105h.012c.106,0,.267.01.4.01s.3-.01.423-.01h.012v.105h-.05c-.1,0-.188.01-.188.142v1.412c0,.132.09.14.188.142h.05v.1Z"
                  transform="translate(-191.82 -450.477)"
                ></path>
                <path
                  fill="#9e9e9e"
                  d="M202.757,456.8l.005-.005v-1.01a.223.223,0,0,0-.235-.254h-.059v-.081c.126,0,.251.011.377.011.11,0,.221-.011.332-.011v.081h-.04c-.113,0-.24.021-.24.343V457.1a1.788,1.788,0,0,0,.016.272h-.1l-1.387-1.547v1.111c0,.235.046.315.253.315h.046v.081c-.116,0-.232-.01-.348-.01s-.245.01-.366.01v-.081h.038c.186,0,.243-.126.243-.342v-1.135a.241.241,0,0,0-.245-.242h-.035v-.081c.1,0,.207.011.31.011.081,0,.159-.011.24-.011Z"
                  transform="translate(-200.073 -450.585)"
                ></path>
                <path
                  fill="#9e9e9e"
                  d="M202.615,456.687h0l0,0Zm.007.005.008-.008Zm.053.56h.089a1.781,1.781,0,0,1-.014-.26v-1.226c0-.323.136-.354.252-.354h.029v-.057c-.106,0-.212.01-.319.01-.123,0-.244-.01-.365-.01v.057h.048a.235.235,0,0,1,.246.265l0,1.019-.005.005-.009.009-1.2-1.356c-.08,0-.158.01-.24.01-.1,0-.2-.01-.3-.01v.057h.023a.254.254,0,0,1,.256.255V456.8c0,.215-.06.353-.254.354h-.027v.058c.116,0,.237-.011.355-.011s.224.01.336.011v-.057h-.034c-.212,0-.264-.093-.265-.327v-1.14Zm.1.023-.111,0-1.368-1.524v1.08c0,.235.039.3.242.3h.058v.1h-.012c-.116,0-.233-.011-.348-.011s-.245.011-.366.011h-.012v-.1h.05c.178,0,.228-.115.231-.33v-1.135a.23.23,0,0,0-.234-.231h-.047v-.1h.012c.1,0,.208.01.309.01.081,0,.158-.01.249-.006l1.184,1.333v-.991c0-.214-.145-.24-.222-.242h-.071v-.1h.012c.127,0,.251.01.377.01.109,0,.22-.01.331-.01h.012v.105H203c-.111,0-.225.012-.228.331v1.226a1.75,1.75,0,0,0,.016.27l0,.013Z"
                  transform="translate(-199.938 -450.477)"
                ></path>
                <path
                  fill="#9e9e9e"
                  d="M223.292,454.848c-.2,0-.21.049-.251.245h-.081c.01-.075.024-.151.033-.228a1.544,1.544,0,0,0,.016-.229h.064c.021.081.089.077.162.077h1.39c.073,0,.141,0,.146-.084l.064.011c-.01.072-.021.145-.03.218s-.005.145-.005.218l-.081.03c-.005-.1-.018-.259-.2-.259h-.442v1.433c0,.208.095.232.223.232h.051v.081c-.105,0-.294-.01-.44-.01-.162,0-.351.01-.456.01v-.081h.051c.149,0,.223-.013.223-.226v-1.439h-.442Z"
                  transform="translate(-219.784 -449.848)"
                ></path>
                <path
                  fill="#9e9e9e"
                  d="M224.229,456.48c-.106,0-.295-.01-.44-.01-.161,0-.35.01-.456.01h-.011v-.1h.062c.149,0,.208-.005.211-.214v-1.428h-.43v-.023h.453v1.451c0,.216-.087.238-.235.239h-.04v.057c.106,0,.288-.01.445-.01.141,0,.32.01.427.01V456.4h-.04c-.131,0-.236-.033-.236-.244v-1.445h.454c.181,0,.205.154.21.255l.058-.021c0-.07,0-.141.005-.212s.017-.138.028-.207l-.041-.007c-.012.079-.089.083-.156.082h-1.4c-.063,0-.133,0-.157-.079h-.045a1.537,1.537,0,0,1-.015.218c-.008.074-.02.145-.031.216h.057c.036-.188.058-.249.26-.246v.023c-.2,0-.195.038-.239.237l0,.009h-.1v-.014c.011-.075.024-.151.033-.23a1.52,1.52,0,0,0,.016-.226V454.5h.086l0,.008c.018.068.068.068.137.069h1.4c.075,0,.13,0,.135-.072v-.012l.012,0,.076.012,0,.012c-.01.072-.021.145-.03.217s-.005.145-.005.217v.008l-.008,0-.095.035v-.015c-.007-.1-.017-.248-.188-.248h-.43v1.422c0,.2.084.217.212.22h.063v.1Z"
                  transform="translate(-219.658 -449.722)"
                ></path>
                <path
                  fill="#9e9e9e"
                  d="M242.19,457.25h.038c.1,0,.2-.013.2-.154v-1.412c0-.141-.1-.154-.2-.154h-.038v-.081c.164,0,.445.011.671.011s.507-.011.69-.011c-.005.116,0,.294.006.412l-.082.021c-.013-.175-.045-.315-.328-.315h-.374v.706h.32c.162,0,.2-.091.213-.237h.081c-.005.105-.008.21-.008.315s0,.205.008.307l-.081.016c-.016-.161-.024-.266-.21-.266h-.322v.627c0,.176.156.176.328.176.323,0,.466-.021.547-.328l.075.018c-.035.143-.067.286-.091.428-.172,0-.482-.01-.724-.01s-.563.01-.717.01v-.081Z"
                  transform="translate(-237.052 -450.585)"
                ></path>
                <path
                  fill="#9e9e9e"
                  d="M243.532,457.22c.023-.137.054-.272.088-.408l-.053-.013c-.081.3-.237.328-.555.326-.169,0-.34,0-.341-.187v-.64h.335c.189,0,.207.111.22.265l.058-.012c-.005-.1-.008-.2-.008-.3s0-.2.008-.3h-.058c-.015.141-.059.239-.223.238h-.333v-.729h.387c.28,0,.326.143.339.312l.058-.016c-.005-.077-.008-.173-.008-.263,0-.046,0-.09,0-.128-.183,0-.456.01-.678.01s-.494-.01-.659-.01v.057h.027c.1,0,.21.017.211.166V457c0,.149-.115.165-.211.166h-.027v.057c.157,0,.468-.01.7-.01s.543.008.716.008m.01.023c-.173,0-.483-.011-.724-.011s-.563.011-.717.011h-.011v-.1h.049c.1,0,.187-.01.188-.142v-1.412c0-.132-.09-.141-.188-.142h-.049v-.105h.011c.164,0,.445.01.671.01s.506-.01.69-.01h.012v.012c0,.041,0,.089,0,.139,0,.093,0,.195.008.272v.009l-.009,0-.095.024v-.014c-.016-.174-.04-.3-.317-.305h-.363v.682H243c.155,0,.183-.081.2-.226v-.011h.1v.012c-.005.105-.008.21-.008.315s0,.2.008.307v.01l-.01,0-.094.018v-.012c-.018-.164-.019-.255-.2-.257h-.312v.616c0,.164.142.163.317.164.324,0,.455-.017.536-.32l0-.011.011,0,.087.022,0,.011c-.035.143-.067.286-.092.427l0,.009h-.01Z"
                  transform="translate(-236.962 -450.486)"
                ></path>
                <path
                  fill="#9e9e9e"
                  d="M259.016,456.369h.132c.27,0,.415-.1.415-.42a.368.368,0,0,0-.394-.393,1.218,1.218,0,0,0-.153.011v.8Zm-.345-.624c0-.2-.108-.2-.192-.2h-.049v-.081c.087,0,.253.011.418.011s.291-.011.433-.011c.339,0,.642.092.642.474a.509.509,0,0,1-.374.474l.461.69a.3.3,0,0,0,.261.162v.081c-.089,0-.175-.01-.264-.01s-.17.01-.253.01a7.514,7.514,0,0,1-.561-.873h-.177v.577c0,.207.1.215.22.215h.049v.081c-.154,0-.31-.01-.463-.01-.13,0-.256.01-.391.01v-.081h.049c.1,0,.192-.046.192-.145v-1.371Z"
                  transform="translate(-251.636 -450.593)"
                ></path>
                <path
                  fill="#9e9e9e"
                  d="M259.039,456.241c.266,0,.4-.095.4-.408a.357.357,0,0,0-.383-.382,1.141,1.141,0,0,0-.142.01v.78Zm-.132.023H258.9v-.825h.01a1.27,1.27,0,0,1,.155-.01.381.381,0,0,1,.406.4c0,.321-.155.431-.426.431Zm0,.073h.185l0,.006a8.289,8.289,0,0,0,.551.867c.082,0,.168-.011.253-.011s.169.009.253.01v-.059a.308.308,0,0,1-.259-.165l-.469-.7.013-.005a.5.5,0,0,0,.367-.464c0-.374-.291-.461-.629-.462-.142,0-.271.011-.433.011s-.318-.01-.406-.011v.057h.037c.084,0,.2.014.2.216V457c0,.108-.1.157-.2.157h-.037v.057c.13,0,.253-.01.379-.01.151,0,.3.01.452.01v-.057h-.037c-.122,0-.233-.015-.233-.229v-.589h.01Zm1.256.9c-.091,0-.176-.011-.265-.011s-.168.011-.262.006a7.6,7.6,0,0,1-.558-.868h-.159v.564c0,.2.085.2.209.2h.06v.105h-.012c-.154,0-.311-.011-.463-.011-.129,0-.255.011-.391.011h-.012v-.1h.061c.1,0,.179-.043.18-.134v-1.37c0-.191-.1-.19-.18-.193h-.06v-.1h.012c.088,0,.254.01.418.01s.29-.01.433-.01c.34,0,.653.094.653.486a.519.519,0,0,1-.368.48l.453.678a.29.29,0,0,0,.253.157h.01v.1Z"
                  transform="translate(-251.528 -450.477)"
                ></path>
                <path
                  fill="#9e9e9e"
                  d="M279.037,456.8l.005-.005v-1.01a.222.222,0,0,0-.234-.254h-.059v-.081c.126,0,.25.011.377.011.111,0,.22-.011.332-.011v.081h-.041c-.113,0-.24.021-.24.343V457.1a1.787,1.787,0,0,0,.016.272h-.1l-1.387-1.547v1.111c0,.235.046.315.253.315H278v.081c-.115,0-.232-.01-.348-.01s-.246.01-.366.01v-.081h.038c.186,0,.243-.126.243-.342v-1.135a.241.241,0,0,0-.245-.242h-.035v-.081c.1,0,.208.011.31.011.081,0,.159-.011.24-.011Z"
                  transform="translate(-268.572 -450.585)"
                ></path>
                <path
                  fill="#9e9e9e"
                  d="M278.9,456.678h0l0,0Zm.007.005.009-.008Zm.054.56h.089a1.779,1.779,0,0,1-.014-.26v-1.226c0-.323.137-.353.252-.354h.029v-.057c-.106,0-.212.01-.319.01-.123,0-.244-.01-.366-.01v.057h.048a.236.236,0,0,1,.246.265l0,1.019-.005.005-.008.009-1.2-1.356c-.081,0-.158.01-.24.01-.1,0-.2-.01-.3-.01v.057h.023a.253.253,0,0,1,.256.254v1.134c0,.216-.061.354-.254.355h-.027v.057c.116,0,.237-.011.355-.011s.225.01.337.011v-.057h-.034c-.212,0-.265-.093-.265-.327v-1.14Zm.1.023-.111,0-1.368-1.524v1.079c0,.235.039.3.242.3h.057v.1h-.011c-.116,0-.233-.011-.348-.011s-.245.011-.366.011h-.012v-.1h.05c.177,0,.228-.115.23-.33v-1.134a.229.229,0,0,0-.233-.23h-.047v-.105h.012c.1,0,.208.01.31.01.08,0,.157-.01.248-.007l1.184,1.334v-.991c0-.214-.144-.241-.222-.242h-.071v-.105h.011c.128,0,.252.01.377.01.11,0,.22-.01.332-.01h.012v.105h-.052c-.111,0-.225.012-.229.33v1.226a1.637,1.637,0,0,0,.016.27v.013h-.013Z"
                  transform="translate(-268.446 -450.468)"
                ></path>
                <path
                  fill="#9e9e9e"
                  d="M299.268,455.159h-.006l-.25.763h.5Zm-.394,1.193a1.079,1.079,0,0,0-.06.21c0,.082.113.095.2.095h.031v.081c-.108-.006-.218-.01-.326-.01s-.194,0-.291.01v-.081h.016a.243.243,0,0,0,.234-.175l.431-1.236a2.2,2.2,0,0,0,.1-.335,1.313,1.313,0,0,0,.245-.116.055.055,0,0,1,.021-.005.019.019,0,0,1,.019.008c.008.021.016.046.024.067l.5,1.41c.033.094.064.194.1.275a.172.172,0,0,0,.178.107h.016v.081c-.121-.006-.243-.01-.371-.01s-.267,0-.4.01v-.081h.03c.061,0,.167-.011.167-.079a.889.889,0,0,0-.054-.194l-.105-.312h-.612Z"
                  transform="translate(-287.556 -449.992)"
                ></path>
                <path
                  fill="#9e9e9e"
                  d="M299.157,455.046l.006,0Zm-.229.748h.472l-.235-.722Zm-.032.023.258-.786h.014v.012h0v-.012h.008l.256.786Zm.551.793c.134-.005.264-.01.393-.01s.243.005.36.01v-.056h0a.181.181,0,0,1-.189-.115c-.035-.082-.068-.182-.1-.275l-.5-1.41c-.008-.021-.016-.046-.022-.064,0,0,0,0,0,0h-.005a.1.1,0,0,0-.015,0,1.027,1.027,0,0,1-.24.108,2.26,2.26,0,0,1-.1.337l-.431,1.236a.256.256,0,0,1-.245.184h0v.056c.093-.005.186-.01.279-.01s.21.005.313.01v-.056h-.017c-.088,0-.21-.011-.214-.106a1.1,1.1,0,0,1,.059-.213l.011,0-.011,0,.089-.288h.628l.108.32a.8.8,0,0,1,.055.2c0,.083-.117.089-.178.09h-.018v.056Zm.763.023c-.121-.005-.243-.011-.371-.011s-.266.006-.4.011h-.012v-.105h.042c.062,0,.155-.014.155-.066a.858.858,0,0,0-.053-.191l-.1-.3h-.595l-.084.272a1.042,1.042,0,0,0-.059.207c0,.066.1.082.191.082h.042v.105h-.012c-.108-.005-.217-.011-.325-.011s-.194.006-.29.011h-.012v-.105h.028a.23.23,0,0,0,.222-.167l.431-1.237a3.225,3.225,0,0,0,.107-.342,1.383,1.383,0,0,0,.245-.115.062.062,0,0,1,.026-.006.033.033,0,0,1,.03.015c.007.022.016.046.024.068l.5,1.41c.032.094.064.194.1.273a.158.158,0,0,0,.167.1h.028v.105Z"
                  transform="translate(-287.457 -449.875)"
                ></path>
                <path
                  fill="#9e9e9e"
                  d="M315.112,454.848c-.2,0-.21.049-.251.245h-.081c.01-.075.024-.151.033-.228a1.7,1.7,0,0,0,.015-.229h.065c.021.081.089.077.161.077h1.39c.072,0,.14,0,.145-.084l.064.011c-.01.072-.02.145-.03.218s-.006.145-.006.218l-.081.03c-.005-.1-.018-.259-.2-.259H315.9v1.433c0,.208.095.232.223.232h.051v.081c-.105,0-.294-.01-.44-.01-.161,0-.351.01-.456.01v-.081h.051c.149,0,.223-.013.223-.226v-1.439h-.439Z"
                  transform="translate(-302.238 -449.848)"
                ></path>
                <path
                  fill="#9e9e9e"
                  d="M316.075,456.48c-.106,0-.295-.01-.44-.01-.161,0-.35.01-.455.01h-.012v-.1h.063c.149,0,.208-.005.212-.214v-1.428h-.429v-.023h.453v1.451c0,.216-.088.238-.236.238h-.04v.057c.106,0,.288-.011.444-.011.141,0,.321.01.427.011V456.4h-.04c-.129,0-.235-.032-.235-.244V454.71h.454c.181,0,.205.154.21.255l.058-.021c0-.07,0-.141.006-.211s.017-.139.027-.207l-.041-.007c-.012.079-.089.083-.155.082h-1.4c-.063,0-.133,0-.157-.078h-.044a1.733,1.733,0,0,1-.016.219c-.007.074-.02.146-.031.216h.058c.036-.188.059-.249.261-.246v.023c-.2,0-.2.038-.24.237l0,.009h-.1l0-.013c.011-.075.025-.151.033-.229a1.538,1.538,0,0,0,.016-.227V454.5h.086l0,.008c.018.068.068.068.137.069h1.4c.074,0,.129,0,.134-.072v-.013l.012,0,.077.012,0,.012c-.011.072-.021.145-.03.217s-.005.145-.005.217v.008l-.008,0-.095.035v-.015c-.007-.1-.017-.248-.188-.248h-.43v1.422c0,.2.084.217.212.22h.063v.1Z"
                  transform="translate(-302.139 -449.722)"
                ></path>
                <path
                  fill="#9e9e9e"
                  d="M334.14,457.25h.038c.1,0,.2-.013.2-.154v-1.412c0-.141-.1-.154-.2-.154h-.038v-.081c.105,0,.266.011.4.011s.3-.011.423-.011v.081h-.038c-.1,0-.2.013-.2.154V457.1c0,.141.1.154.2.154h.038v.081c-.13,0-.292-.01-.426-.01s-.291.01-.4.01Z"
                  transform="translate(-319.623 -450.585)"
                ></path>
                <path
                  fill="#9e9e9e"
                  d="M334.851,457.22v-.057h-.025c-.1,0-.211-.017-.211-.165v-1.412c0-.149.114-.165.211-.166h.025v-.057c-.124,0-.281.01-.411.01s-.283-.01-.387-.01v.057h.027c.1,0,.21.017.211.166V457c0,.149-.115.165-.211.165h-.027v.057c.1,0,.256-.01.385-.01s.286.01.413.01m.012.023c-.131,0-.292-.011-.426-.011s-.291.011-.4.011h-.011v-.1h.049c.1,0,.187-.01.188-.142v-1.412c0-.132-.09-.141-.188-.142h-.049v-.105h.011c.105,0,.267.01.4.01s.3-.01.423-.01h.011v.105h-.049c-.1,0-.188.01-.189.142V457c0,.132.09.141.189.142h.049v.1Z"
                  transform="translate(-319.524 -450.486)"
                ></path>
                <path
                  fill="#9e9e9e"
                  d="M344.024,456.893c.523,0,.614-.461.614-.854s-.212-.871-.66-.871c-.471,0-.612.42-.612.781,0,.482.222.944.658.944m-.041-1.843a.945.945,0,0,1,1.032.93A.988.988,0,0,1,344,457.013a.952.952,0,0,1-1.008-.968.98.98,0,0,1,.993-.995"
                  transform="translate(-327.57 -450.225)"
                ></path>
                <path
                  fill="#9e9e9e"
                  d="M343.247,455.851c0-.362.143-.794.623-.794.458,0,.671.487.672.882s-.093.865-.626.865v-.023c.512,0,.6-.45.6-.843s-.21-.858-.649-.859c-.462,0-.6.411-.6.769,0,.48.219.931.646.931v.023c-.446,0-.667-.467-.668-.953m-.377.095a.993.993,0,0,1,1.006-1.006v.025a.969.969,0,0,0-.983.982.942.942,0,0,0,1,.956.976.976,0,0,0,1.007-1.02.933.933,0,0,0-1.021-.918v-.025a.959.959,0,0,1,1.044.941,1,1,0,0,1-1.03,1.043.966.966,0,0,1-1.02-.979"
                  transform="translate(-327.463 -450.127)"
                ></path>
                <path
                  fill="#9e9e9e"
                  d="M365.25,456.8l.005-.005v-1.01a.223.223,0,0,0-.235-.254h-.059v-.081c.126,0,.251.011.376.011s.221-.011.331-.011v.081h-.041c-.113,0-.24.021-.24.343V457.1a1.78,1.78,0,0,0,.016.272h-.1l-1.388-1.547v1.111c0,.235.046.315.253.315h.046v.081c-.116,0-.232-.01-.348-.01s-.246.01-.366.01v-.081h.038c.187,0,.243-.126.243-.342v-1.135a.241.241,0,0,0-.246-.242H363.5v-.081c.1,0,.207.011.31.011.081,0,.158-.011.24-.011Z"
                  transform="translate(-345.988 -450.585)"
                ></path>
                <path
                  fill="#9e9e9e"
                  d="M365.145,456.678h0l0,0Zm.006.005.008-.008Zm.054.56h.089a1.932,1.932,0,0,1-.014-.26v-1.226c0-.324.136-.353.252-.354h.03v-.057c-.107,0-.213.01-.32.01-.122,0-.243-.01-.365-.01v.057h.047a.236.236,0,0,1,.246.265l0,1.019-.005.005-.008.009-1.2-1.356c-.08,0-.158.01-.24.01-.1,0-.2-.01-.3-.01v.057h.023a.254.254,0,0,1,.257.254v1.135c0,.215-.06.353-.254.354h-.027v.057c.117,0,.237-.011.355-.011s.224.01.336.011v-.057h-.035c-.211,0-.264-.093-.264-.327v-1.14Zm.1.023-.111,0-1.368-1.524v1.08c0,.235.039.3.241.3h.058v.1h-.011c-.116,0-.233-.011-.348-.011s-.245.011-.367.011h-.011v-.1h.049c.177,0,.228-.115.23-.329v-1.135a.23.23,0,0,0-.234-.23h-.046v-.105h.011c.1,0,.208.01.31.01.08,0,.157-.01.249-.006l1.184,1.333v-.991c0-.214-.145-.24-.223-.242h-.071v-.105h.012c.126,0,.251.01.376.01.11,0,.22-.01.333-.01h.011v.105h-.052c-.111,0-.225.013-.228.33v1.226a1.756,1.756,0,0,0,.015.27l0,.013h-.011Z"
                  transform="translate(-345.89 -450.468)"
                ></path>
                <path
                  fill="#9e9e9e"
                  d="M385.508,455.159H385.5l-.251.763h.5Zm-.394,1.193a1.136,1.136,0,0,0-.059.21c0,.082.113.095.2.095h.03v.081c-.108-.006-.218-.01-.326-.01s-.194,0-.291.01v-.081h.015a.244.244,0,0,0,.235-.175l.432-1.236a2.186,2.186,0,0,0,.1-.335,1.323,1.323,0,0,0,.246-.116.052.052,0,0,1,.021-.005c.008,0,.013,0,.018.008s.016.046.025.067l.5,1.41c.033.094.064.194.1.275a.17.17,0,0,0,.178.107h.016v.081c-.121-.006-.243-.01-.372-.01s-.267,0-.4.01v-.081h.03c.061,0,.167-.011.167-.079a.889.889,0,0,0-.054-.194l-.105-.312H385.2Z"
                  transform="translate(-364.999 -449.992)"
                ></path>
                <path
                  fill="#9e9e9e"
                  d="M385.363,455.035l.005,0Zm-.229.748h.471l-.235-.722Zm-.033.023.259-.786h.014v.012h0v-.012h.008l.255.786Zm.551.793c.134-.005.264-.01.393-.01s.243.005.36.01v-.056h0a.185.185,0,0,1-.189-.115c-.036-.082-.067-.182-.1-.275l-.5-1.41c-.008-.021-.016-.046-.022-.064,0,0,0,0,0,0h-.005a.044.044,0,0,0-.015,0,1.043,1.043,0,0,1-.24.107,2.265,2.265,0,0,1-.1.337l-.431,1.236a.257.257,0,0,1-.246.184h0v.056c.093-.005.186-.01.279-.01s.211.005.314.01v-.056h-.018c-.088,0-.21-.01-.214-.106a1.12,1.12,0,0,1,.06-.213l.011,0-.011,0,.089-.288h.628l.108.32a.837.837,0,0,1,.054.2c0,.083-.117.089-.179.09h-.018Zm.764.023c-.121-.005-.243-.011-.371-.011s-.266.006-.4.011h-.012v-.105h.041c.062,0,.155-.014.155-.066a.824.824,0,0,0-.054-.191l-.1-.3h-.595l-.084.272a1.166,1.166,0,0,0-.059.206c0,.066.1.083.19.083h.041v.1h-.012c-.107-.005-.218-.011-.325-.011s-.193.006-.291.011h-.012v-.105h.027a.234.234,0,0,0,.224-.167l.431-1.237a3.327,3.327,0,0,0,.107-.341,1.452,1.452,0,0,0,.245-.116.06.06,0,0,1,.026-.006.03.03,0,0,1,.03.015c.008.021.016.046.024.067l.5,1.41c.033.094.064.194.1.274a.158.158,0,0,0,.166.1h.028v.1Z"
                  transform="translate(-364.864 -449.864)"
                ></path>
                <path
                  fill="#9e9e9e"
                  d="M404.615,457.067c0,.108.074.141.161.152a1.9,1.9,0,0,0,.356-.006.379.379,0,0,0,.258-.146.612.612,0,0,0,.084-.194h.078c-.03.154-.067.3-.1.458-.237,0-.474-.01-.711-.01s-.474.01-.711.01v-.081h.038c.1,0,.2-.013.2-.181v-1.385c0-.141-.105-.154-.2-.154h-.038v-.081c.143,0,.283.011.425.011s.272-.011.41-.011v.081H404.8c-.1,0-.183,0-.183.146Z"
                  transform="translate(-382.384 -450.585)"
                ></path>
                <path
                  fill="#9e9e9e"
                  d="M405.344,457.211c.032-.147.066-.29.1-.435h-.055a.624.624,0,0,1-.083.19.4.4,0,0,1-.267.15,2.058,2.058,0,0,1-.207.011c-.052,0-.1,0-.152-.006-.088-.009-.172-.047-.172-.162v-1.39c0-.15.095-.157.2-.157h.055v-.057c-.133,0-.264.011-.4.011s-.275-.01-.414-.011v.057h.025c.1,0,.214.017.214.165v1.385c0,.174-.117.193-.214.193h-.025v.057c.233,0,.466-.01.7-.01s.469.009.7.009m.01.023c-.238,0-.475-.011-.711-.011s-.474.011-.712.011h-.011v-.1h.049c.1,0,.19-.009.191-.168v-1.385c0-.132-.093-.14-.191-.142h-.049v-.105h.011c.144,0,.284.01.426.01s.271-.01.41-.01h.011v.105H404.7c-.1,0-.169,0-.171.134v1.39c0,.1.066.128.151.14.047,0,.1.005.149.005a1.994,1.994,0,0,0,.2-.01.378.378,0,0,0,.251-.141.613.613,0,0,0,.082-.19l0-.009h.1l0,.014c-.031.154-.067.3-.1.458l0,.009h-.011Z"
                  transform="translate(-382.286 -450.477)"
                ></path>
                <path
                  fill="#9e9e9e"
                  d="M416.089,454.985h.034c.037,0,.054-.028.054-.072a.053.053,0,0,0-.055-.061h-.032v.134Zm-.1.149v-.013c.035-.005.041,0,.041-.025v-.21c0-.03,0-.04-.04-.038v-.014h.145c.05,0,.1.023.1.075a.089.089,0,0,1-.067.086l.047.065a.32.32,0,0,0,.062.067v.009h-.055c-.027,0-.05-.056-.1-.131h-.032v.094c0,.018.006.017.042.022v.013h-.137Zm.141.081a.231.231,0,1,0-.224-.231.228.228,0,0,0,.224.231m0-.514a.284.284,0,1,1-.284.285.279.279,0,0,1,.284-.285"
                  transform="translate(-392.999 -449.911)"
                ></path>
              </g>
              <g transform="translate(6.106)">
                <path
                  fill="#fff"
                  d="M253.63,322a4.564,4.564,0,1,1,4.564,4.564A4.563,4.563,0,0,1,253.63,322Z"
                  transform="translate(-253.431 -317.194)"
                ></path>
                <path
                  fill="#9e9e9e"
                  d="M256.449,324.484a4.737,4.737,0,0,1-4.769-4.686,4.664,4.664,0,0,1,4.769-4.769h1.226a4.828,4.828,0,0,1,4.943,4.769,4.921,4.921,0,0,1-4.943,4.686Zm.011-9.063a4.327,4.327,0,1,0,4.328,4.328A4.328,4.328,0,0,0,256.46,315.422Zm-.982,6.887V317.19a2.74,2.74,0,0,0,0,5.118Zm3.725-2.559a2.746,2.746,0,0,0-1.762-2.56v5.12A2.747,2.747,0,0,0,259.2,319.75Z"
                  transform="translate(-251.68 -315.03)"
                ></path>
              </g>
            </g>
          </svg>