 <svg
            xmlns="http://www.w3.org/2000/svg"
            width="35"
            height="24"
            viewBox="0 0 35 24"
          >
            <defs></defs>
            <g fill="#fff" stroke="#bbb">
              <rect stroke="none" width="35" height="24" rx="2"></rect>
              <rect
                fill="none"
                x="0.5"
                y="0.5"
                width="34"
                height="23"
                rx="1.5"
              ></rect>
            </g>
            <g transform="translate(7.502 7.459)">
              <path
                fill="#9e9e9e"
                d="M1028.521,376.335a4.686,4.686,0,0,1-.276-.532,4.032,4.032,0,0,1,2.012-5.244,4.039,4.039,0,0,1,3.709.27,3.96,3.96,0,0,1,1.655,2c.05.118.094.244.139.352Zm2.418-4.209a2,2,0,0,0-1.211,2.121l3.64-1.568A1.933,1.933,0,0,0,1030.939,372.127Zm2.883,3.41a0,0,0,0,0,0,0l-.075-.052a2.142,2.142,0,0,1-.984.824,1.913,1.913,0,0,1-2.11-.213l-.05.076a0,0,0,0,0,0,0l-.924,1.382a4.005,4.005,0,0,0,.733.4,4.006,4.006,0,0,0,4.818-1.48Z"
                transform="translate(-1027.91 -368.526)"
              ></path>
              <path
                fill="#9e9e9e"
                d="M1534.8,271v7.683l1.2.484-.678,1.583L1534,280.2a1.493,1.493,0,0,1-.649-.546,1.716,1.716,0,0,1-.254-.951V271Z"
                transform="translate(-1524.425 -271)"
              ></path>
              <g transform="translate(11.64 1.714)">
                <path
                  fill="#9e9e9e"
                  d="M1707.634,432.407a2.171,2.171,0,0,1,.747-1.64l-1.226-1.367a4.014,4.014,0,0,0,0,6.01l1.224-1.367A2.171,2.171,0,0,1,1707.634,432.407Z"
                  transform="translate(-1705.8 -428.394)"
                ></path>
                <path
                  fill="#9e9e9e"
                  d="M1866.376,631.938a2.189,2.189,0,0,1-.69-.113l-.586,1.74a4.018,4.018,0,0,0,5.21-3l-1.8-.367A2.176,2.176,0,0,1,1866.376,631.938Z"
                  transform="translate(-1862.365 -625.746)"
                ></path>
                <path
                  fill="#9e9e9e"
                  d="M1866.872,370.8a4.047,4.047,0,0,0-1.272.2l.58,1.741A2.178,2.178,0,0,1,1869,374.38l1.8-.364A4.015,4.015,0,0,0,1866.872,370.8Z"
                  transform="translate(-1862.856 -370.8)"
                ></path>
              </g>
            </g>
          </svg>