<svg id="google-play-badge-svg" xmlns="http://www.w3.org/2000/svg" xmlns:xlink="http://www.w3.org/1999/xlink" width="135" height="40" viewBox="0 0 135 40"><defs><style>.google-play-badge-svg-a{fill:#a6a6a6;}.google-play-badge-svg-b,.google-play-badge-svg-i,.google-play-badge-svg-j{fill:#fff;}.google-play-badge-svg-c{fill:url(#google-play-badge-svg-a);}.google-play-badge-svg-d{fill:url(#google-play-badge-svg-b);}.google-play-badge-svg-e{fill:url(#google-play-badge-svg-c);}.google-play-badge-svg-f{fill:url(#google-play-badge-svg-d);}.google-play-badge-svg-g{opacity:0.2;}.google-play-badge-svg-h{opacity:0.12;}.google-play-badge-svg-i{opacity:0.25;}.google-play-badge-svg-j{stroke:#fff;stroke-miterlimit:10;stroke-width:0.2px;}</style><linearGradient id="google-play-badge-svg-a" x1="0.915" y1="6.617" x2="-0.384" y2="5.947" gradientUnits="objectBoundingBox"><stop offset="0" stop-color="#00a0ff"></stop><stop offset="0.007" stop-color="#00a1ff"></stop><stop offset="0.26" stop-color="#00beff"></stop><stop offset="0.512" stop-color="#00d2ff"></stop><stop offset="0.76" stop-color="#00dfff"></stop><stop offset="1" stop-color="#00e3ff"></stop></linearGradient><linearGradient id="google-play-badge-svg-b" x1="1.076" y1="17.089" x2="-1.305" y2="17.089" gradientUnits="objectBoundingBox"><stop offset="0" stop-color="#ffe000"></stop><stop offset="0.409" stop-color="#ffbd00"></stop><stop offset="0.775" stop-color="orange"></stop><stop offset="1" stop-color="#ff9c00"></stop></linearGradient><linearGradient id="google-play-badge-svg-c" x1="0.863" y1="10.864" x2="-0.502" y2="9.095" gradientUnits="objectBoundingBox"><stop offset="0" stop-color="#ff3a44"></stop><stop offset="1" stop-color="#c31162"></stop></linearGradient><linearGradient id="google-play-badge-svg-d" x1="-0.188" y1="13.585" x2="0.421" y2="12.794" gradientUnits="objectBoundingBox"><stop offset="0" stop-color="#32a071"></stop><stop offset="0.068" stop-color="#2da771"></stop><stop offset="0.476" stop-color="#15cf74"></stop><stop offset="0.801" stop-color="#06e775"></stop><stop offset="1" stop-color="#00f076"></stop></linearGradient></defs><g transform="translate(-10 -10)"><path d="M140,50H15a5.015,5.015,0,0,1-5-5V15a5.015,5.015,0,0,1,5-5H140a5.015,5.015,0,0,1,5,5V45A5.015,5.015,0,0,1,140,50Z"></path><path class="google-play-badge-svg-a" d="M140,10.8a4.2,4.2,0,0,1,4.2,4.2V45a4.2,4.2,0,0,1-4.2,4.2H15A4.2,4.2,0,0,1,10.8,45V15A4.2,4.2,0,0,1,15,10.8H140m0-.8H15a5.015,5.015,0,0,0-5,5V45a5.015,5.015,0,0,0,5,5H140a5.015,5.015,0,0,0,5-5V15a5.015,5.015,0,0,0-5-5Z"></path><path class="google-play-badge-svg-b" d="M78.14,31.75A4.25,4.25,0,1,0,82.41,36,4.195,4.195,0,0,0,78.14,31.75Zm0,6.83A2.587,2.587,0,1,1,80.54,36,2.458,2.458,0,0,1,78.14,38.58Zm-9.32-6.83A4.25,4.25,0,1,0,73.09,36,4.195,4.195,0,0,0,68.82,31.75Zm0,6.83A2.587,2.587,0,1,1,71.22,36,2.458,2.458,0,0,1,68.82,38.58ZM57.74,33.06v1.8h4.32a3.8,3.8,0,0,1-.98,2.27,4.411,4.411,0,0,1-3.33,1.32,4.8,4.8,0,0,1,0-9.6A4.571,4.571,0,0,1,61,30.14l1.27-1.27a6.3,6.3,0,0,0-4.53-1.82,6.611,6.611,0,1,0,0,13.22,6.03,6.03,0,0,0,4.61-1.85,5.968,5.968,0,0,0,1.56-4.22,5.456,5.456,0,0,0-.1-1.13H57.74Zm45.31,1.4a3.946,3.946,0,0,0-3.64-2.71A4.038,4.038,0,0,0,95.4,36a4.159,4.159,0,0,0,4.22,4.25,4.214,4.214,0,0,0,3.54-1.88l-1.45-.97a2.419,2.419,0,0,1-2.09,1.18,2.163,2.163,0,0,1-2.06-1.29l5.69-2.35Zm-5.8,1.42a2.331,2.331,0,0,1,2.22-2.48,1.652,1.652,0,0,1,1.58.9ZM92.63,40H94.5V27.5H92.63Zm-3.06-7.3H89.5a2.94,2.94,0,0,0-2.24-.95,4.259,4.259,0,0,0,0,8.51,2.9,2.9,0,0,0,2.24-.97h.06v.61c0,1.63-.87,2.5-2.27,2.5a2.354,2.354,0,0,1-2.14-1.51l-1.63.68a4.053,4.053,0,0,0,3.77,2.51c2.19,0,4.04-1.29,4.04-4.43V32.01H89.56v.69Zm-2.15,5.88a2.584,2.584,0,0,1,0-5.15,2.4,2.4,0,0,1,2.27,2.59A2.365,2.365,0,0,1,87.42,38.58ZM111.81,27.5h-4.47V40h1.87V35.26h2.61a3.886,3.886,0,1,0-.01-7.76Zm.04,6.02H109.2V29.23h2.65a2.145,2.145,0,1,1,0,4.29Zm11.54-1.79a3.518,3.518,0,0,0-3.33,1.91l1.66.69a1.764,1.764,0,0,1,1.7-.92,1.8,1.8,0,0,1,1.96,1.61v.13a4.176,4.176,0,0,0-1.95-.48c-1.79,0-3.6.98-3.6,2.81a2.886,2.886,0,0,0,3.1,2.75,2.629,2.629,0,0,0,2.38-1.22h.06v.97h1.8V35.19C127.18,32.97,125.52,31.73,123.39,31.73Zm-.23,6.85c-.61,0-1.46-.31-1.46-1.06,0-.96,1.06-1.33,1.98-1.33a3.293,3.293,0,0,1,1.7.42A2.257,2.257,0,0,1,123.16,38.58ZM133.74,32l-2.14,5.42h-.06L129.32,32h-2.01l3.33,7.58-1.9,4.21h1.95L135.82,32Zm-16.8,8h1.87V27.5h-1.87Z"></path><path class="google-play-badge-svg-c" d="M20.44,17.54a2.012,2.012,0,0,0-.46,1.4V41.06a1.978,1.978,0,0,0,.46,1.4l.07.07L32.9,30.15v-.3L20.51,17.47Z"></path><path class="google-play-badge-svg-d" d="M37.03,34.28,32.9,30.15v-.3l4.13-4.13.09.05,4.89,2.78c1.4.79,1.4,2.09,0,2.89l-4.89,2.78Z"></path><path class="google-play-badge-svg-e" d="M37.12,34.22,32.9,30,20.44,42.46a1.622,1.622,0,0,0,2.08.06l14.6-8.3"></path><path class="google-play-badge-svg-f" d="M37.12,25.78l-14.61-8.3a1.622,1.622,0,0,0-2.08.06L32.9,30Z"></path><path class="google-play-badge-svg-g" d="M37.03,34.13,22.51,42.38a1.661,1.661,0,0,1-2,.01h0l-.07.07h0l.07.07h0a1.663,1.663,0,0,0,2-.01l14.61-8.3Z"></path><path class="google-play-badge-svg-h" d="M20.44,42.32a2.012,2.012,0,0,1-.46-1.4v.15a1.978,1.978,0,0,0,.46,1.4l.07-.07Z"></path><path class="google-play-badge-svg-h" d="M42.01,31.3l-4.99,2.83.09.09L42,31.44A1.758,1.758,0,0,0,43.05,30h0A1.819,1.819,0,0,1,42.01,31.3Z"></path><path class="google-play-badge-svg-i" d="M22.51,17.62,42.01,28.7A1.869,1.869,0,0,1,43.06,30h0a1.745,1.745,0,0,0-1.05-1.44L22.51,17.48c-1.4-.79-2.54-.13-2.54,1.47v.15C19.97,17.49,21.12,16.83,22.51,17.62Z"></path><path class="google-play-badge-svg-j" d="M51.34,23V17h1.84a3,3,0,0,1,2.21.83A2.964,2.964,0,0,1,56.22,20a2.964,2.964,0,0,1-.83,2.17,3.035,3.035,0,0,1-2.22.83Zm.77-.74h1.06a2.261,2.261,0,0,0,1.65-.6,2.213,2.213,0,0,0,.61-1.67,2.2,2.2,0,0,0-.61-1.66,2.245,2.245,0,0,0-1.65-.6H52.11Z"></path><path class="google-play-badge-svg-j" d="M57.3,23V17h.77v6Z"></path><path class="google-play-badge-svg-j" d="M61.13,23.13a2.21,2.21,0,0,1-1.28-.43,1.976,1.976,0,0,1-.82-1.2l.7-.28a1.539,1.539,0,0,0,.51.83,1.282,1.282,0,0,0,.88.34,1.459,1.459,0,0,0,.86-.26.843.843,0,0,0,.36-.72.909.909,0,0,0-.36-.77,3.781,3.781,0,0,0-1.13-.51,3.059,3.059,0,0,1-1.21-.65,1.371,1.371,0,0,1-.41-1.02,1.488,1.488,0,0,1,.51-1.12,1.873,1.873,0,0,1,1.33-.48,1.951,1.951,0,0,1,1.24.38,1.7,1.7,0,0,1,.62.83l-.7.29a1.015,1.015,0,0,0-.37-.53,1.182,1.182,0,0,0-.77-.24,1.16,1.16,0,0,0-.76.25.758.758,0,0,0-.31.62.73.73,0,0,0,.29.57,2.8,2.8,0,0,0,.85.41c.3.1.54.19.74.28a3.178,3.178,0,0,1,.6.36,1.432,1.432,0,0,1,.46.55,1.856,1.856,0,0,1,.16.77,1.661,1.661,0,0,1-.18.78,1.4,1.4,0,0,1-.48.54,2.526,2.526,0,0,1-.64.31A2.215,2.215,0,0,1,61.13,23.13Z"></path><path class="google-play-badge-svg-j" d="M65.01,23h-.77V17h2.04a1.885,1.885,0,0,1,1.32.51,1.743,1.743,0,0,1,0,2.56,1.885,1.885,0,0,1-1.32.51H65.01V23Zm0-3.17H66.3a1,1,0,0,0,.78-.33,1.038,1.038,0,0,0,.29-.72,1.085,1.085,0,0,0-.29-.72,1,1,0,0,0-.78-.33H65.01Z"></path><path class="google-play-badge-svg-j" d="M74.04,22.22a3.114,3.114,0,0,1-4.4,0,3.24,3.24,0,0,1,0-4.44,2.927,2.927,0,0,1,2.2-.91,2.958,2.958,0,0,1,2.2.91A3.08,3.08,0,0,1,74.93,20,3.047,3.047,0,0,1,74.04,22.22Zm-3.83-.5a2.318,2.318,0,0,0,3.26,0A2.36,2.36,0,0,0,74.14,20a2.321,2.321,0,0,0-.67-1.72,2.318,2.318,0,0,0-3.26,0,2.543,2.543,0,0,0,0,3.44Z"></path><path class="google-play-badge-svg-j" d="M76.01,23V17h.94l2.92,4.67h.03l-.03-1.16V17h.77v6h-.8l-3.05-4.89h-.03l.03,1.16V23Z"></path><path class="google-play-badge-svg-j" d="M82.01,23V17h.77v6Zm.72-6.47h-.67l.44-1.07h.84Z"></path><path class="google-play-badge-svg-j" d="M85.64,23l-2.11-6h.85l1.64,4.87h.03L87.77,17h.85l-2.18,6Z"></path><path class="google-play-badge-svg-j" d="M93,17.74H90.27v1.9h2.46v.72H90.27v1.9H93V23H89.5V17H93Z"></path><path class="google-play-badge-svg-j" d="M94.2,23V17h.77v5.26h2.6V23Z"></path><path class="google-play-badge-svg-j" d="M100.55,23V17h.94l2.92,4.67h.03l-.03-1.16V17h.77v6h-.8l-3.05-4.89h-.03l.03,1.16V23Z"></path><path class="google-play-badge-svg-j" d="M111.46,22.22a3.114,3.114,0,0,1-4.4,0,3.24,3.24,0,0,1,0-4.44,2.927,2.927,0,0,1,2.2-.91,2.958,2.958,0,0,1,2.2.91,3.214,3.214,0,0,1,0,4.44Zm-3.83-.5a2.318,2.318,0,0,0,3.26,0,2.36,2.36,0,0,0,.67-1.72,2.321,2.321,0,0,0-.67-1.72,2.318,2.318,0,0,0-3.26,0,2.543,2.543,0,0,0,0,3.44Z"></path></g></svg>