<svg
            xmlns="http://www.w3.org/2000/svg"
            width="35"
            height="24"
            viewBox="0 0 35 24"
          >
            <defs></defs>
            <g stroke="#bbb" fill="#fff">
              <rect stroke="none" width="35" height="24" rx="2"></rect>
              <rect
                fill="none"
                x="0.5"
                y="0.5"
                width="34"
                height="23"
                rx="1.5"
              ></rect>
            </g>
            <g transform="translate(5.3 6.606)">
              <path
                fill="#9e9e9e"
                d="M6.607,0H4.112A2.225,2.225,0,0,0,1.849,1.411c-.136.477-.21,1-.316,1.5C.994,5.424.516,8.01,0,10.476H19.418c1.5,0,2.532-.317,2.811-1.509.129-.553.253-1.18.377-1.789.483-2.371.966-4.742,1.46-7.178H6.607"
              ></path>
              <path
                fill="#fff"
                d="M59.5,69.582c-.269.264-1.025.339-.948-.292.064-.523.634-.635,1.252-.559A1.554,1.554,0,0,1,59.5,69.582Zm-.851-2.042c-.026.144-.065.275-.1.413.308-.077,1.269-.314,1.361.1a.72.72,0,0,1-.061.389c-.868-.082-1.576.062-1.762.681a.768.768,0,0,0,.28.936,1.162,1.162,0,0,0,1.349-.377,1.587,1.587,0,0,0-.036.389h.45a6.975,6.975,0,0,1,.134-1.167,4.606,4.606,0,0,0,.146-.948C60.372,67.287,59.267,67.522,58.649,67.54Zm4.509,2.248c-.352.008-.527-.21-.535-.571-.014-.632.263-1.335.826-1.4a1.371,1.371,0,0,1,.644.1C63.917,68.627,63.981,69.771,63.157,69.789Zm1.167-3.342c-.045.393-.1.77-.182,1.13-1.282-.406-2.068.537-2.054,1.7a.915.915,0,0,0,.182.608A1.182,1.182,0,0,0,63.559,70a.908.908,0,0,0,.182-.182c.034-.042.087-.154.1-.122a2.72,2.72,0,0,0-.049.377h.474a33.1,33.1,0,0,1,.583-3.622Zm-13.38,3.148c-.28.3-.967.292-1.021-.207a2.476,2.476,0,0,1,.1-.668c.04-.227.069-.445.109-.644.275-.336,1.085-.377,1.167.182A1.854,1.854,0,0,1,50.944,69.594Zm.413-2.054a1.379,1.379,0,0,0-1.215.221c0,.008-.006.009-.012.01l.012-.01v0c0-.081.033-.138.036-.219h-.45c-.187,1.247-.41,2.458-.644,3.658h.523c.076-.467.126-.96.231-1.4.119.46.9.372,1.227.194C51.744,69.628,52.267,67.882,51.357,67.54Zm2.479.875H52.609a.724.724,0,0,1,.693-.608C53.678,67.793,53.947,67.946,53.836,68.415Zm-.5-.924a1.364,1.364,0,0,0-.924.377,2.111,2.111,0,0,0-.438,1.531c.094.842,1.142.812,1.981.608.014-.148.05-.274.073-.413a1.667,1.667,0,0,1-1.3.085c-.268-.17-.27-.6-.182-.972.564-.018,1.149-.014,1.714,0a1.8,1.8,0,0,0,.049-.814C54.192,67.548,53.769,67.459,53.338,67.492Zm-4.594.049c-.014,0-.013.019-.012.036-.115.861-.271,1.682-.437,2.491h.523c.126-.867.269-1.716.45-2.528Zm13.636.012a.8.8,0,0,0-1,.389c.043-.119.045-.279.085-.4h-.462q-.187,1.3-.45,2.528h.535a5.719,5.719,0,0,1,.122-.911c.112-.7.276-1.471,1.094-1.24C62.334,67.8,62.345,67.664,62.38,67.552Zm-5.87,1.92a1.272,1.272,0,0,1-.049-.486,1.7,1.7,0,0,1,.352-.972,1.281,1.281,0,0,1,1.24-.073c.013-.145.042-.274.061-.413a1.976,1.976,0,0,0-1.726.328,2.076,2.076,0,0,0-.413,1.726c.188.616,1.031.649,1.714.413.03-.124.046-.262.073-.389C57.389,69.8,56.676,69.9,56.51,69.473Zm-.292-1.932a.8.8,0,0,0-1,.425c.038-.132.054-.286.085-.425h-.462c-.113.876-.279,1.7-.437,2.528h.523A9.936,9.936,0,0,1,55.2,68.44a.729.729,0,0,1,.96-.523C56.164,67.778,56.2,67.672,56.218,67.54ZM47.8,66.519c-.075.484-.159.959-.243,1.434-.541.006-1.094.027-1.616-.012.1-.464.169-.957.267-1.422h-.583c-.209,1.185-.4,2.388-.632,3.549h.6c.093-.6.181-1.2.3-1.762a14.52,14.52,0,0,1,1.6.012c-.1.588-.222,1.155-.316,1.75h.6c.191-1.2.393-2.394.632-3.549Zm1.483.535c.1-.072.238-.4.085-.535a.289.289,0,0,0-.243-.036.294.294,0,0,0-.207.109c-.066.09-.127.361-.024.462s.323.046.389,0Z"
                transform="translate(-42.874 -63.323)"
              ></path>
            </g>
          </svg>