<svg xmlns="http://www.w3.org/2000/svg" width="85.169" height="20" viewBox="0 0 85.169 20"><defs></defs><g transform="translate(-11.19 -7.177)"><g transform="translate(15.717 11.78)"><path fill="#9e9e9e" d="M36.629,30.367H34.551V29.3a1.545,1.545,0,1,0-3.09,0v1.067H29.383V29.3a3.623,3.623,0,1,1,7.245,0v1.067Z" transform="translate(-29.383 -25.678)"></path></g><path fill="#9e9e9e" d="M32.847,44.523H23.925a.694.694,0,0,0-.692.692v6.6a.694.694,0,0,0,.692.692h8.922a.694.694,0,0,0,.692-.692v-6.6A.694.694,0,0,0,32.847,44.523Zm-4.009,4.333v.894a.452.452,0,0,1-.9,0v-.894a.918.918,0,1,1,.9,0Z" transform="translate(-9.046 -28.053)"></path><path fill="#9e9e9e" d="M13.975,36.753H11.822a.632.632,0,1,1,0-1.264h2.153a.632.632,0,1,1,0,1.264Z" transform="translate(0 -21.267)"></path><path fill="#9e9e9e" d="M21.428,18.916a.63.63,0,0,1-.4-.144l-1.7-1.4a.632.632,0,0,1,.8-.976l1.7,1.4a.632.632,0,0,1-.4,1.12Z" transform="translate(-5.937 -6.817)"></path><path fill="#9e9e9e" d="M42.036,10.611a.632.632,0,0,1-.632-.632V7.809a.632.632,0,1,1,1.264,0v2.17A.632.632,0,0,1,42.036,10.611Z" transform="translate(-22.696)"></path><g transform="translate(22.556 9.435)"><path fill="#9e9e9e" d="M57.5,18.916a.632.632,0,0,1-.4-1.12l1.7-1.4a.632.632,0,0,1,.8.976l-1.7,1.4A.629.629,0,0,1,57.5,18.916Z" transform="translate(-56.87 -16.252)"></path></g><path fill="#9e9e9e" d="M65.689,36.753H63.516a.632.632,0,0,1,0-1.264h2.173a.632.632,0,0,1,0,1.264Z" transform="translate(-38.831 -21.267)"></path><path fill="#9e9e9e" d="M85.519,52.365V44.333H87.47v6.342h3.109v1.69Z" transform="translate(-55.834 -27.911)"></path><path fill="#9e9e9e" d="M113.9,56.253v.227a2.048,2.048,0,0,1-.011.216h-4.1a.987.987,0,0,0,.142.431,1.222,1.222,0,0,0,.306.335,1.5,1.5,0,0,0,.9.3,1.564,1.564,0,0,0,.749-.164,1.477,1.477,0,0,0,.5-.425l1.293.817a2.617,2.617,0,0,1-1.049.891,3.474,3.474,0,0,1-1.515.312,3.619,3.619,0,0,1-1.2-.2,2.915,2.915,0,0,1-.993-.579,2.676,2.676,0,0,1-.669-.936,3.131,3.131,0,0,1-.244-1.271,3.182,3.182,0,0,1,.238-1.254A2.838,2.838,0,0,1,108.9,54a2.883,2.883,0,0,1,.964-.607,3.3,3.3,0,0,1,1.2-.215,3.046,3.046,0,0,1,1.146.21,2.493,2.493,0,0,1,.9.607,2.808,2.808,0,0,1,.584.964A3.718,3.718,0,0,1,113.9,56.253Zm-1.713-.715a1.117,1.117,0,0,0-.278-.76,1.049,1.049,0,0,0-.834-.318,1.412,1.412,0,0,0-.5.085,1.3,1.3,0,0,0-.4.233,1.15,1.15,0,0,0-.272.346,1.014,1.014,0,0,0-.113.414h2.394Z" transform="translate(-72.73 -34.556)"></path><path fill="#9e9e9e" d="M135.4,50.805v2.164a.974.974,0,0,0,.153.6.656.656,0,0,0,.55.2,1.972,1.972,0,0,0,.289-.023,1,1,0,0,0,.255-.068l.023,1.361a3.1,3.1,0,0,1-.488.119,3.45,3.45,0,0,1-.59.051,2.78,2.78,0,0,1-.953-.142,1.472,1.472,0,0,1-.618-.41,1.6,1.6,0,0,1-.335-.637,3.1,3.1,0,0,1-.1-.825V50.805h-.907V49.421h.9V47.935H135.4v1.486h1.327v1.384H135.4Z" transform="translate(-91.257 -30.616)"></path><path fill="#9e9e9e" d="M161.312,55.03a2.08,2.08,0,0,0-.533-.363,1.473,1.473,0,0,0-.647-.147,1.138,1.138,0,0,0-.482.1.358.358,0,0,0-.221.352.35.35,0,0,0,.244.34,5.32,5.32,0,0,0,.789.227,4.293,4.293,0,0,1,.641.193,2.263,2.263,0,0,1,.584.329,1.577,1.577,0,0,1,.42.5,1.465,1.465,0,0,1,.159.7,1.693,1.693,0,0,1-.777,1.5,2.424,2.424,0,0,1-.777.329,3.74,3.74,0,0,1-.862.1,4.258,4.258,0,0,1-1.356-.221,2.843,2.843,0,0,1-1.106-.652l1.044-1.1a2.083,2.083,0,0,0,.613.454,1.7,1.7,0,0,0,.771.181,1.013,1.013,0,0,0,.448-.108.387.387,0,0,0,.221-.38.407.407,0,0,0-.272-.386,4.895,4.895,0,0,0-.851-.261,4.37,4.37,0,0,1-.59-.181,1.859,1.859,0,0,1-.528-.306,1.517,1.517,0,0,1-.38-.477,1.455,1.455,0,0,1-.148-.681,1.652,1.652,0,0,1,.215-.868,1.822,1.822,0,0,1,.556-.584,2.471,2.471,0,0,1,.754-.335,3.263,3.263,0,0,1,.823-.108,3.977,3.977,0,0,1,1.242.2,2.683,2.683,0,0,1,1.027.6Z" transform="translate(-109.82 -34.557)"></path><path fill="#9e9e9e" d="M190.378,52.365V44.333h5.4v1.634H192.25v1.52h3.335v1.554H192.25v1.668h3.732v1.656h-5.6Z" transform="translate(-134.602 -27.911)"></path><path fill="#9e9e9e" d="M221.412,59.079V55.993a2.512,2.512,0,0,0-.04-.454,1.264,1.264,0,0,0-.13-.38.68.68,0,0,0-.255-.261.81.81,0,0,0-.414-.1.941.941,0,0,0-.437.1.886.886,0,0,0-.312.267,1.206,1.206,0,0,0-.187.391,1.686,1.686,0,0,0-.062.46v3.063H217.7V53.43h1.8v.783h.023a1.877,1.877,0,0,1,.267-.357,1.594,1.594,0,0,1,.386-.3,2.4,2.4,0,0,1,.482-.2,1.9,1.9,0,0,1,.556-.079,2.085,2.085,0,0,1,.964.2,1.846,1.846,0,0,1,.641.528,2.08,2.08,0,0,1,.352.743,3.362,3.362,0,0,1,.108.84v3.494h-1.872Z" transform="translate(-155.128 -34.625)"></path><path fill="#9e9e9e" d="M246.737,55.186a1.133,1.133,0,0,0-.431-.329,1.323,1.323,0,0,0-.556-.125,1.176,1.176,0,0,0-.533.119,1.293,1.293,0,0,0-.409.318,1.493,1.493,0,0,0-.266.459,1.588,1.588,0,0,0-.1.556,1.671,1.671,0,0,0,.091.556,1.352,1.352,0,0,0,.267.46,1.265,1.265,0,0,0,.42.312,1.286,1.286,0,0,0,.55.113,1.543,1.543,0,0,0,.562-.108,1.077,1.077,0,0,0,.448-.312l1.032,1.259a2.43,2.43,0,0,1-.907.533,3.574,3.574,0,0,1-1.18.193,3.737,3.737,0,0,1-1.25-.2,2.905,2.905,0,0,1-1.008-.6,2.8,2.8,0,0,1-.674-.948,3.326,3.326,0,0,1,0-2.507,2.8,2.8,0,0,1,.674-.947,2.975,2.975,0,0,1,1.008-.6,3.614,3.614,0,0,1,1.238-.21,3.264,3.264,0,0,1,.607.057,4.079,4.079,0,0,1,.579.153,2.644,2.644,0,0,1,.511.238,2.158,2.158,0,0,1,.4.312Z" transform="translate(-173.793 -34.554)"></path><path fill="#9e9e9e" d="M270.2,54.96a1.474,1.474,0,0,0-.244-.046q-.119-.011-.233-.011a1.33,1.33,0,0,0-.63.136,1.281,1.281,0,0,0-.408.328,1.239,1.239,0,0,0-.221.419,1.4,1.4,0,0,0-.068.4v2.9h-1.86V53.435h1.793v.817h.023a1.838,1.838,0,0,1,.613-.708,1.578,1.578,0,0,1,.919-.274c.075,0,.149,0,.221.011a.876.876,0,0,1,.176.034Z" transform="translate(-191.81 -34.624)"></path><path fill="#9e9e9e" d="M286.961,60.408a4.943,4.943,0,0,1-.38.788,2.375,2.375,0,0,1-.5.59,1.971,1.971,0,0,1-.681.369,3.05,3.05,0,0,1-.925.125,4.446,4.446,0,0,1-.539-.034,3.327,3.327,0,0,1-.482-.091l.2-1.565a2.084,2.084,0,0,0,.3.074,1.805,1.805,0,0,0,.3.028.842.842,0,0,0,.624-.2,1.608,1.608,0,0,0,.329-.562l.181-.465-2.36-5.559H285.1l1.259,3.63h.034l1.123-3.63h1.974Z" transform="translate(-204.203 -35.102)"></path><path fill="#9e9e9e" d="M317.224,56.23a3.572,3.572,0,0,1-.181,1.134,2.923,2.923,0,0,1-.527.959,2.61,2.61,0,0,1-.845.664,2.505,2.505,0,0,1-1.134.25,2.374,2.374,0,0,1-.987-.21,1.758,1.758,0,0,1-.726-.573H312.8V61.8h-1.86V53.428h1.77v.692h.034a2.3,2.3,0,0,1,.72-.6,2.193,2.193,0,0,1,1.083-.255,2.546,2.546,0,0,1,1.112.238,2.506,2.506,0,0,1,.845.647,2.943,2.943,0,0,1,.533.947A3.412,3.412,0,0,1,317.224,56.23Zm-1.8,0a1.711,1.711,0,0,0-.085-.533,1.388,1.388,0,0,0-.25-.459,1.249,1.249,0,0,0-.993-.448,1.253,1.253,0,0,0-.567.125,1.351,1.351,0,0,0-.425.329,1.5,1.5,0,0,0-.272.465,1.521,1.521,0,0,0,0,1.066,1.505,1.505,0,0,0,.272.465,1.357,1.357,0,0,0,.425.329,1.252,1.252,0,0,0,.567.125,1.279,1.279,0,0,0,.579-.125,1.234,1.234,0,0,0,.414-.329,1.445,1.445,0,0,0,.25-.471A1.762,1.762,0,0,0,315.42,56.23Z" transform="translate(-225.164 -34.623)"></path><path fill="#9e9e9e" d="M339.923,50.805v2.164a.974.974,0,0,0,.153.6.656.656,0,0,0,.55.2,1.974,1.974,0,0,0,.289-.023.99.99,0,0,0,.255-.068l.023,1.362a3.068,3.068,0,0,1-.488.119,3.45,3.45,0,0,1-.59.051,2.775,2.775,0,0,1-.953-.142,1.472,1.472,0,0,1-.618-.41,1.6,1.6,0,0,1-.335-.637,3.1,3.1,0,0,1-.1-.825V50.805H337.2V49.421h.9V47.935h1.827v1.486h1.327v1.384Z" transform="translate(-244.891 -30.616)"></path><path fill="#9e9e9e" d="M152.806,43.714a.948.948,0,0,0-1,.916.862.862,0,0,0,.916.9.665.665,0,0,0,.133-.013,1.035,1.035,0,0,1-.838.745l-.074.012v.864l.1-.009a2.039,2.039,0,0,0,1.2-.552,2.262,2.262,0,0,0,.638-1.68A1.1,1.1,0,0,0,152.806,43.714Z" transform="translate(-105.63 -27.446)"></path></g></svg>