<svg
            xmlns="http://www.w3.org/2000/svg"
            width="35"
            height="24"
            viewBox="0 0 35 24"
          >
            <defs></defs>
            <g fill="#fff" stroke="#bbb">
              <rect stroke="none" width="35" height="24" rx="2"></rect>
              <rect
                fill="none"
                x="0.5"
                y="0.5"
                width="34"
                height="23"
                rx="1.5"
              ></rect>
            </g>
            <g transform="translate(5.719 3.07)">
              <path
                fill="#9e9e9e"
                d="M24.2,94.522V93.33a.707.707,0,0,0-.747-.755.735.735,0,0,0-.667.338.7.7,0,0,0-.628-.338.628.628,0,0,0-.556.282v-.234H21.19v1.9h.417V93.477a.445.445,0,0,1,.465-.5c.274,0,.413.179.413.5V94.53H22.9V93.477a.447.447,0,0,1,.465-.5c.282,0,.417.179.417.5V94.53Zm6.171-1.9h-.679v-.576h-.417v.576H28.9V93h.385v.874c0,.441.171.7.659.7a.969.969,0,0,0,.516-.147l-.119-.354a.763.763,0,0,1-.365.107c-.2,0-.274-.127-.274-.318V93h.675Zm3.524-.048a.56.56,0,0,0-.5.278v-.23h-.409v1.9H33.4V93.457c0-.314.135-.489.4-.489a.673.673,0,0,1,.258.048l.127-.4a.883.883,0,0,0-.294-.052Zm-5.327.2a1.42,1.42,0,0,0-.775-.2c-.481,0-.795.23-.795.608,0,.31.23.5.655.56l.2.028c.226.032.334.091.334.2,0,.147-.151.23-.433.23a1.011,1.011,0,0,1-.632-.2l-.2.322a1.371,1.371,0,0,0,.822.246c.548,0,.866-.258.866-.62s-.25-.508-.663-.568l-.2-.028c-.179-.024-.322-.06-.322-.187s.135-.222.362-.222a1.224,1.224,0,0,1,.6.163Zm11.066-.2a.56.56,0,0,0-.5.278v-.23h-.409v1.9h.413V93.457c0-.314.135-.489.4-.489a.673.673,0,0,1,.258.048l.127-.4a.883.883,0,0,0-.294-.052Zm-5.323.993a.959.959,0,0,0,1.013.993.993.993,0,0,0,.683-.226l-.2-.334a.834.834,0,0,1-.5.171.61.61,0,0,1,0-1.216.834.834,0,0,1,.5.171l.2-.334a.993.993,0,0,0-.683-.226.959.959,0,0,0-1.013.993Zm3.869,0v-.945h-.413v.23a.721.721,0,0,0-.6-.278.993.993,0,1,0,0,1.986.721.721,0,0,0,.6-.278v.23h.413Zm-1.537,0A.57.57,0,1,1,36.8,94a.574.574,0,0,1-.155-.43Zm-4.986-.993a.993.993,0,1,0,.028,1.986,1.154,1.154,0,0,0,.789-.258l-.2-.306a.9.9,0,0,1-.552.2.526.526,0,0,1-.568-.465h1.41v-.159a.9.9,0,0,0-.9-.993Zm0,.369a.471.471,0,0,1,.481.461h-.993a.489.489,0,0,1,.5-.461Zm10.351.628V91.86h-.4v.993a.721.721,0,0,0-.6-.278.993.993,0,1,0,0,1.986.721.721,0,0,0,.6-.278v.23h.4Zm.689.673a.191.191,0,0,1,.179.113.185.185,0,0,1,0,.147.19.19,0,0,1-.1.1.187.187,0,0,1-.075.016.2.2,0,0,1-.179-.115.187.187,0,0,1,0-.147.193.193,0,0,1,.185-.113Zm0,.336a.141.141,0,0,0,.058-.012.149.149,0,0,0,.046-.032.143.143,0,0,0-.046-.23A.143.143,0,0,0,42.7,94.3a.149.149,0,0,0-.058.012.145.145,0,0,0-.048.032.144.144,0,0,0,.111.242Zm.012-.236a.079.079,0,0,1,.052.016.05.05,0,0,1,.018.042.048.048,0,0,1-.014.036.069.069,0,0,1-.042.018l.058.066h-.046l-.054-.066h-.018v.066h-.038v-.175Zm-.044.034v.048h.044a.042.042,0,0,0,.024,0,41.91,41.91,0,0,1,0-.036.042.042,0,0,0-.024,0Zm-2.185-.806a.57.57,0,1,1,.155.43A.574.574,0,0,1,40.481,93.572Zm-13.95,0v-.949h-.413v.23a.721.721,0,0,0-.6-.278.993.993,0,1,0,0,1.986.721.721,0,0,0,.6-.278v.23h.413Zm-1.537,0a.564.564,0,1,1,.152.431.574.574,0,0,1-.152-.431Z"
                transform="translate(-19.992 -76.623)"
              ></path>
              <path
                fill="#bbb"
                d="M0,0H6.257V11.244H0Z"
                transform="translate(8.441 1.529)"
              ></path>
              <path
                fill="#9e9e9e"
                d="M23.993,22.306a7.139,7.139,0,0,1,2.731-5.623,7.151,7.151,0,1,0,0,11.244A7.139,7.139,0,0,1,23.993,22.306Z"
                transform="translate(-15.155 -15.154)"
              ></path>
              <path
                fill="#dbdbdb"
                d="M84.97,22.3A7.151,7.151,0,0,1,73.4,27.924a7.151,7.151,0,0,0,0-11.244A7.151,7.151,0,0,1,84.97,22.3Z"
                transform="translate(-61.831 -15.151)"
              ></path>
            </g>
          </svg>