<svg xmlns="http://www.w3.org/2000/svg" xmlns:xlink="http://www.w3.org/1999/xlink" width="51.92" height="18.557" viewBox="0 0 51.92 18.557"><defs><clipPath id="clip-path"><rect id="Retângulo_1091" data-name="Retângulo 1091" width="51.92" height="18.557" fill="none"></rect></clipPath></defs><g id="Grupo_2281" data-name="Grupo 2281" clip-path="url(#clip-path)"><path id="Caminho_1070" data-name="Caminho 1070" d="M31.334,9.359H34.3V8.994A9,9,0,0,0,25.328,0V2.966A6.031,6.031,0,0,1,31.342,9c0,.122,0,.244-.008.365" transform="translate(17.618)" fill="#9e9e9e"></path><path id="Caminho_1071" data-name="Caminho 1071" d="M14.79,11.394a3.566,3.566,0,0,1-.705-.227,5.057,5.057,0,0,1-.5-.264,2.383,2.383,0,0,1-.329-.238l-.1-.1.591-.874.084.084a2.12,2.12,0,0,0,.229.178,2.513,2.513,0,0,0,1.546.5,1.764,1.764,0,0,0,1.288-.4,1.546,1.546,0,0,0,.4-1.152V8.445a1.1,1.1,0,0,1-.066.088,2.425,2.425,0,0,1-.215.2,1.873,1.873,0,0,1-.878.452,3.028,3.028,0,0,1-2.681-.642,2.7,2.7,0,0,1-.773-2.068,2.748,2.748,0,0,1,.789-2.037A2.647,2.647,0,0,1,15.4,3.659a2.734,2.734,0,0,1,1.059.2,1.871,1.871,0,0,1,.645.4l.175.195v-.71h1.192V8.71A2.474,2.474,0,0,1,15.654,11.5h-.012a3.953,3.953,0,0,1-.86-.094Zm-.464-6.23a1.856,1.856,0,0,0-.455,1.29,1.806,1.806,0,0,0,.464,1.288,1.611,1.611,0,0,0,1.229.5,1.723,1.723,0,0,0,1.288-.489,1.758,1.758,0,0,0,.478-1.288,1.758,1.758,0,0,0-.492-1.288,1.716,1.716,0,0,0-1.288-.5,1.591,1.591,0,0,0-1.229.5ZM0,11.374V3.746H1.18v.733l.071-.091a2.035,2.035,0,0,1,.213-.206,2.378,2.378,0,0,1,.371-.251,2.637,2.637,0,0,1,.546-.2,2.765,2.765,0,0,1,.711-.1,2.544,2.544,0,0,1,1.933.784,2.847,2.847,0,0,1,.748,2.057,2.886,2.886,0,0,1-.745,2.108,2.641,2.641,0,0,1-1.972.773,2.731,2.731,0,0,1-.693-.09,2.1,2.1,0,0,1-.537-.22A3.657,3.657,0,0,1,1.469,8.8a1.223,1.223,0,0,1-.216-.216L1.189,8.5v2.865ZM1.63,5.169A1.856,1.856,0,0,0,1.149,6.5,1.831,1.831,0,0,0,1.63,7.852a1.74,1.74,0,0,0,1.288.492,1.537,1.537,0,0,0,1.214-.509,1.93,1.93,0,0,0,.445-1.318A1.931,1.931,0,0,0,4.113,5.18a1.577,1.577,0,0,0-1.228-.521,1.656,1.656,0,0,0-1.265.52ZM43.2,9.387a3.187,3.187,0,0,1-2.309-.781,2.833,2.833,0,0,1-.813-2.148,2.81,2.81,0,0,1,.83-2.1,2.869,2.869,0,0,1,2.1-.815,2.793,2.793,0,0,1,2.165.86,3.346,3.346,0,0,1,.781,2.349v.288H41.817a.424.424,0,0,0,.015.111,1.342,1.342,0,0,0,.105.23,1.174,1.174,0,0,0,.213.294,1.237,1.237,0,0,0,.416.235,1.893,1.893,0,0,0,.645.1,2.077,2.077,0,0,0,.8-.155,1.905,1.905,0,0,0,.557-.323l.164-.162.9,1.048c-.022.029-.054.065-.091.11a2.677,2.677,0,0,1-.285.234,3.512,3.512,0,0,1-.479.309,3.247,3.247,0,0,1-.684.234,3.884,3.884,0,0,1-.883.105Zm-.724-4.372a.928.928,0,0,0-.348.241,1.653,1.653,0,0,0-.2.283.722.722,0,0,0-.088.241l-.022.1H44.19a.6.6,0,0,0-.022-.1,1.223,1.223,0,0,0-.093-.229.984.984,0,0,0-.551-.524A1.215,1.215,0,0,0,43,4.92h-.029a1.257,1.257,0,0,0-.5.1ZM29.061,9.1a.977.977,0,0,1-.017-1.382l.017-.017a1.059,1.059,0,0,1,1.443,0,.977.977,0,0,1,.017,1.382L30.5,9.1a1.073,1.073,0,0,1-1.443,0m-7.212.26a2.757,2.757,0,0,1-1.972-.733,2.746,2.746,0,0,1-.758-2.089A2.717,2.717,0,0,1,22.9,3.876a1.856,1.856,0,0,1,.645.4l.175.2v-.7H24.9V9.277H23.718V8.521c-.015.023-.037.054-.066.093a1.508,1.508,0,0,1-.215.213,2.375,2.375,0,0,1-.356.252,2.5,2.5,0,0,1-.526.2,2.586,2.586,0,0,1-.685.091ZM20.74,5.19a1.89,1.89,0,0,0-.453,1.321,1.891,1.891,0,0,0,.464,1.324,1.574,1.574,0,0,0,1.228.513,1.7,1.7,0,0,0,1.288-.492,1.846,1.846,0,0,0,.475-1.347,1.808,1.808,0,0,0-.492-1.321,1.715,1.715,0,0,0-1.288-.5,1.568,1.568,0,0,0-1.229.506ZM9.022,9.356a2.736,2.736,0,0,1-1.969-.733,2.753,2.753,0,0,1-.773-2.1,2.783,2.783,0,0,1,.787-2.075A2.629,2.629,0,0,1,9,3.664a2.643,2.643,0,0,1,1.059.2,1.87,1.87,0,0,1,.646.4l.173.2V3.769h1.181V9.277h-1.18V8.521a.78.78,0,0,1-.066.093,1.426,1.426,0,0,1-.215.213,2.36,2.36,0,0,1-.354.252,2.5,2.5,0,0,1-.526.2,2.678,2.678,0,0,1-.676.073Zm-1.1-4.168a1.91,1.91,0,0,0-.455,1.321,1.91,1.91,0,0,0,.464,1.324,1.577,1.577,0,0,0,1.229.513,1.7,1.7,0,0,0,1.288-.492,1.856,1.856,0,0,0,.475-1.347,1.814,1.814,0,0,0-.492-1.321,1.72,1.72,0,0,0-1.288-.5A1.568,1.568,0,0,0,7.91,5.19ZM38.023,9.276V5.838c0-.574-.213-.86-.645-.86q-.786,0-.786,1.147V9.284H34.931V5.848c0-.574-.213-.86-.645-.86q-.773-.012-.773,1.146V9.29H31.856V3.664h1.659V4.4l.056-.088a1.356,1.356,0,0,1,.155-.195A1.563,1.563,0,0,1,34,3.862a1.692,1.692,0,0,1,.416-.195,1.712,1.712,0,0,1,.557-.088,1.829,1.829,0,0,1,.558.082,1.348,1.348,0,0,1,.4.2,2.063,2.063,0,0,1,.246.226.9.9,0,0,1,.142.195l.032.076.059-.084c.057-.065.118-.125.181-.186a1.9,1.9,0,0,1,.309-.24,1.794,1.794,0,0,1,.428-.189,2.01,2.01,0,0,1,.566-.082q1.772,0,1.771,2.043V9.274Zm-12.2,0V3.769h1.18v.994a.517.517,0,0,1,.049-.119,2.418,2.418,0,0,1,.176-.274,1.443,1.443,0,0,1,.773-.6,1.576,1.576,0,0,1,.656-.093l-.087,1.276a1.345,1.345,0,0,0-1.146.354,1.559,1.559,0,0,0-.416,1.152V9.276Z" transform="translate(0 2.461)" fill="#9e9e9e"></path><path id="Caminho_1072" data-name="Caminho 1072" d="M2.071,9.433v1.7a.826.826,0,0,1-.261.645.973.973,0,0,1-.688.235.976.976,0,0,1-.69-.234.823.823,0,0,1-.258-.645v-1.7H.616v1.7a.543.543,0,0,0,.124.387.515.515,0,0,0,.38.135q.512,0,.51-.538V9.433Zm1.127,0,.728,1.947.728-1.947h.569v2.541H4.8v-.84l.042-1.12-.75,1.958H3.772l-.747-1.959.042,1.118v.838H2.638V9.433Zm4.059,1.948h-.98l-.215.592H5.615l.959-2.541h.4l.963,2.541H7.471ZM6.4,11.023h.738L6.77,9.97Zm4.359-.186H9.718v.773h1.217v.354H9.277V9.433h1.648V9.8H9.718v.7h1.041Zm1.192-1.406.733,1.933.731-1.933h.561v2.541h-.425v-.84l.045-1.12-.748,1.959h-.325l-.748-1.959.045,1.118v.838h-.431V9.433Zm3.082,1.594v.946H14.6V9.433h.971a1,1,0,0,1,.677.215.747.747,0,0,1,.249.583.707.707,0,0,1-.246.58,1.019,1.019,0,0,1-.685.215Zm0-.354h.529a.513.513,0,0,0,.357-.108.4.4,0,0,0,.125-.32.425.425,0,0,0-.127-.329.478.478,0,0,0-.345-.127h-.541Zm2.858.32H17.4v.98h-.442V9.433h.885a1.027,1.027,0,0,1,.677.2.687.687,0,0,1,.241.568.733.733,0,0,1-.122.431.817.817,0,0,1-.345.264l.569,1.052v.023h-.473Zm-.49-.353h.455a.5.5,0,0,0,.348-.111.4.4,0,0,0,.127-.3.418.418,0,0,0-.118-.309.5.5,0,0,0-.346-.116H17.4Zm3.356.2H19.714v.773h1.223v.353H19.273V9.433H20.92V9.8H19.712v.7h1.044Zm1.947.478a.3.3,0,0,0-.119-.258,1.461,1.461,0,0,0-.428-.186,2.054,2.054,0,0,1-.489-.213.648.648,0,0,1-.348-.569.619.619,0,0,1,.258-.5,1.011,1.011,0,0,1,.645-.2,1.058,1.058,0,0,1,.473.1.773.773,0,0,1,.323.28.705.705,0,0,1,.119.4h-.431a.39.39,0,0,0-.124-.309.512.512,0,0,0-.356-.113.56.56,0,0,0-.336.093.309.309,0,0,0-.121.26.281.281,0,0,0,.13.232,1.433,1.433,0,0,0,.431.179,2.094,2.094,0,0,1,.475.2.8.8,0,0,1,.264.258.71.71,0,0,1,.084.342.609.609,0,0,1-.244.506,1.058,1.058,0,0,1-.657.187,1.186,1.186,0,0,1-.507-.1.826.826,0,0,1-.359-.281.718.718,0,0,1-.128-.418H21.7a.4.4,0,0,0,.142.334.656.656,0,0,0,.41.121.554.554,0,0,0,.345-.094.292.292,0,0,0,.116-.247Zm2.335.063h-.983l-.215.592h-.464l.968-2.541h.4l.96,2.541H25.24Zm-.86-.356h.736l-.368-1.053Zm4.2.292a.3.3,0,0,0-.118-.258,1.517,1.517,0,0,0-.431-.186,2.133,2.133,0,0,1-.486-.213A.643.643,0,0,1,27,10.09a.619.619,0,0,1,.251-.506,1,1,0,0,1,.645-.2,1.065,1.065,0,0,1,.473.1.773.773,0,0,1,.323.277.714.714,0,0,1,.119.4h-.431a.4.4,0,0,0-.124-.309.523.523,0,0,0-.356-.111.549.549,0,0,0-.337.091.309.309,0,0,0-.119.26.283.283,0,0,0,.128.234,1.536,1.536,0,0,0,.428.179,1.9,1.9,0,0,1,.475.2.786.786,0,0,1,.264.258.688.688,0,0,1,.085.342.6.6,0,0,1-.244.5,1.056,1.056,0,0,1-.657.189,1.237,1.237,0,0,1-.507-.1.838.838,0,0,1-.359-.281.707.707,0,0,1-.128-.418h.45a.4.4,0,0,0,.141.332.619.619,0,0,0,.41.121.554.554,0,0,0,.346-.093.309.309,0,0,0,.118-.247ZM31.129,9.8h-.793v2.176h-.43V9.8H29.12V9.432h2.01Zm2.394.98a1.557,1.557,0,0,1-.128.645.991.991,0,0,1-.37.431,1.013,1.013,0,0,1-.551.155,1.027,1.027,0,0,1-.549-.155,1.01,1.01,0,0,1-.373-.431,1.478,1.478,0,0,1-.133-.645v-.141a1.514,1.514,0,0,1,.13-.646.98.98,0,0,1,.366-.428,1.073,1.073,0,0,1,1.1,0,.977.977,0,0,1,.37.428,1.534,1.534,0,0,1,.133.645Zm-.439-.13A1.132,1.132,0,0,0,32.929,10a.563.563,0,0,0-.789-.111.583.583,0,0,0-.111.111,1.061,1.061,0,0,0-.162.631v.155a1.093,1.093,0,0,0,.155.645.569.569,0,0,0,.8.107.637.637,0,0,0,.107-.107,1.147,1.147,0,0,0,.155-.645Zm2.98,1.336h-.436l-1.138-1.8v1.8h-.442V9.433h.442l1.135,1.809V9.433h.431Zm2.091-1.135H37.11v.781h1.225v.353H36.673V9.433H38.32V9.8H37.109v.7h1.044Zm3.529.309a.908.908,0,0,1-.3.645,1.126,1.126,0,0,1-1.229.085.939.939,0,0,1-.356-.41,1.463,1.463,0,0,1-.13-.619v-.235a1.5,1.5,0,0,1,.125-.645.994.994,0,0,1,.366-.431A1.042,1.042,0,0,1,40.71,9.4a.982.982,0,0,1,.677.227.948.948,0,0,1,.3.645h-.428a.609.609,0,0,0-.155-.391.533.533,0,0,0-.376-.124.521.521,0,0,0-.442.215,1.067,1.067,0,0,0-.155.619V10.8a1.1,1.1,0,0,0,.145.628.493.493,0,0,0,.428.215.581.581,0,0,0,.391-.119.619.619,0,0,0,.164-.388Zm2.505-.376a1.512,1.512,0,0,1-.128.646.979.979,0,0,1-.366.428,1.019,1.019,0,0,1-.551.155,1.047,1.047,0,0,1-.549-.155,1.011,1.011,0,0,1-.371-.428,1.492,1.492,0,0,1-.135-.646v-.138A1.5,1.5,0,0,1,42.221,10a.984.984,0,0,1,.365-.438,1.03,1.03,0,0,1,.549-.155,1.044,1.044,0,0,1,.549.155.956.956,0,0,1,.37.428,1.517,1.517,0,0,1,.135.646Zm-.439-.133a1.118,1.118,0,0,0-.155-.645.577.577,0,0,0-.9,0,1.1,1.1,0,0,0-.164.631v.155a1.083,1.083,0,0,0,.162.645.568.568,0,0,0,.795.107.532.532,0,0,0,.107-.107,1.134,1.134,0,0,0,.155-.645Zm.977.871a.251.251,0,0,1,.182.066.237.237,0,0,1,.065.169.217.217,0,0,1-.065.165.243.243,0,0,1-.182.065.247.247,0,0,1-.179-.065.212.212,0,0,1-.065-.165.223.223,0,0,1,.065-.169.235.235,0,0,1,.179-.066" transform="translate(0.12 6.529)" fill="#9e9e9e"></path></g></svg>