<svg xmlns="http://www.w3.org/2000/svg" xmlns:xlink="http://www.w3.org/1999/xlink" width="35" height="24" viewBox="0 0 35 24"><defs><clipPath id="clip-pix"><rect width="35" height="24"></rect></clipPath></defs><g id="pix" clip-path="url(#clip-pix)"><rect width="35" height="24" fill="#fff"></rect><g id="Grupo_1990" data-name="Grupo 1990"><g id="Grupo_1989" data-name="Grupo 1989" transform="translate(-0.04 -0.104)"><g id="Grupo_1957" data-name="Grupo 1957"><path id="Caminho_778" data-name="Caminho 778" d="M32.787,23.9H2.213A2.175,2.175,0,0,1,.04,21.724V2.276A2.175,2.175,0,0,1,2.213.1H32.787A2.175,2.175,0,0,1,34.96,2.276V21.724A2.175,2.175,0,0,1,32.787,23.9ZM2.213.854A1.424,1.424,0,0,0,.79,2.276V21.724a1.424,1.424,0,0,0,1.423,1.422H32.787a1.425,1.425,0,0,0,1.423-1.422V2.276A1.425,1.425,0,0,0,32.787.854Z" fill="#bbb"></path></g><g id="Grupo_1982" data-name="Grupo 1982"><g id="Grupo_1958" data-name="Grupo 1958"><path id="Caminho_779" data-name="Caminho 779" d="M10.959,14.7a1.309,1.309,0,0,1-.931-.385L8.682,12.973a.256.256,0,0,0-.353,0l-1.35,1.35a1.309,1.309,0,0,1-.931.385H5.785l1.7,1.7a1.365,1.365,0,0,0,1.927,0L11.123,14.7Z" fill="#9e9e9e"></path></g><g id="Grupo_1959" data-name="Grupo 1959"><path id="Caminho_780" data-name="Caminho 780" d="M6.048,9.947a1.313,1.313,0,0,1,.932.385l1.349,1.35a.25.25,0,0,0,.354,0l1.345-1.344a1.305,1.305,0,0,1,.931-.386h.162L9.413,8.244a1.362,1.362,0,0,0-1.926,0h0l-1.7,1.7Z" fill="#9e9e9e"></path></g><g id="Grupo_1960" data-name="Grupo 1960"><path id="Caminho_781" data-name="Caminho 781" d="M12.533,11.365,11.5,10.333a.2.2,0,0,1-.073.014h-.469a.931.931,0,0,0-.652.27L8.962,11.961a.645.645,0,0,1-.912,0L6.7,10.612a.929.929,0,0,0-.652-.27H5.472a.185.185,0,0,1-.069-.014L4.364,11.365a1.363,1.363,0,0,0,0,1.926L5.4,14.327a.2.2,0,0,1,.069-.013h.578a.926.926,0,0,0,.652-.271l1.349-1.349a.661.661,0,0,1,.913,0l1.345,1.344a.927.927,0,0,0,.652.27h.469a.183.183,0,0,1,.073.015l1.032-1.032a1.363,1.363,0,0,0,0-1.926h0" fill="#9e9e9e"></path></g><g id="Grupo_1961" data-name="Grupo 1961"><path id="Caminho_782" data-name="Caminho 782" d="M16.538,15.7a1.258,1.258,0,0,0-.252.038v.337a.593.593,0,0,0,.2.033c.169,0,.249-.057.249-.206s-.065-.2-.193-.2m-.309.625v-.666h.046l.005.029a1.3,1.3,0,0,1,.263-.042.256.256,0,0,1,.173.05.259.259,0,0,1,.076.206.235.235,0,0,1-.108.214.416.416,0,0,1-.2.043.687.687,0,0,1-.2-.031v.2Z" fill="#9e9e9e"></path></g><g id="Grupo_1962" data-name="Grupo 1962"><path id="Caminho_783" data-name="Caminho 783" d="M17.215,15.7c-.168,0-.244.053-.244.2s.074.209.244.209.243-.053.243-.2-.074-.209-.243-.209m.217.41a.371.371,0,0,1-.217.052A.378.378,0,0,1,17,16.112a.285.285,0,0,1,0-.41.481.481,0,0,1,.435,0,.235.235,0,0,1,.087.2.238.238,0,0,1-.087.206" fill="#9e9e9e"></path></g><g id="Grupo_1963" data-name="Grupo 1963"><path id="Caminho_784" data-name="Caminho 784" d="M18.23,16.15l-.188-.4h0l-.186.4H17.8l-.2-.487h.063l.167.409h0l.181-.409h.052l.186.409h0l.162-.409h.062l-.2.487Z" fill="#9e9e9e"></path></g><g id="Grupo_1964" data-name="Grupo 1964"><path id="Caminho_785" data-name="Caminho 785" d="M18.845,15.7c-.156,0-.209.07-.218.17h.437c0-.11-.062-.17-.219-.17m0,.463a.3.3,0,0,1-.2-.054.253.253,0,0,1-.076-.2.248.248,0,0,1,.091-.208.321.321,0,0,1,.189-.049.343.343,0,0,1,.2.047.248.248,0,0,1,.084.225h-.5c0,.1.035.189.224.189a1.52,1.52,0,0,0,.251-.029v.051a1.377,1.377,0,0,1-.256.03" fill="#9e9e9e"></path></g><g id="Grupo_1965" data-name="Grupo 1965"><path id="Caminho_786" data-name="Caminho 786" d="M19.287,16.15v-.487h.046l0,.029a.856.856,0,0,1,.242-.042h.007V15.7h-.014a.791.791,0,0,0-.229.038v.408Z" fill="#9e9e9e"></path></g><g id="Grupo_1966" data-name="Grupo 1966"><path id="Caminho_787" data-name="Caminho 787" d="M19.917,15.7c-.156,0-.209.07-.219.17h.438c0-.11-.062-.17-.219-.17m0,.463a.294.294,0,0,1-.2-.054.294.294,0,0,1,.014-.411.334.334,0,0,1,.19-.049.337.337,0,0,1,.194.047.247.247,0,0,1,.086.225h-.5c0,.1.035.189.224.189a1.52,1.52,0,0,0,.251-.029v.051a1.366,1.366,0,0,1-.255.03" fill="#9e9e9e"></path></g><g id="Grupo_1967" data-name="Grupo 1967"><path id="Caminho_788" data-name="Caminho 788" d="M20.818,15.735a.593.593,0,0,0-.2-.033c-.169,0-.249.057-.249.2s.066.2.193.2a1.258,1.258,0,0,0,.252-.038Zm.011.415-.005-.028a1.3,1.3,0,0,1-.263.042.256.256,0,0,1-.173-.05.259.259,0,0,1-.076-.206.228.228,0,0,1,.108-.213.409.409,0,0,1,.2-.044.758.758,0,0,1,.2.03v-.223h.057v.692Z" fill="#9e9e9e"></path></g><g id="Grupo_1968" data-name="Grupo 1968"><path id="Caminho_789" data-name="Caminho 789" d="M21.709,15.7a1.267,1.267,0,0,0-.253.038v.336a.575.575,0,0,0,.2.034c.169,0,.248-.057.248-.206s-.065-.2-.192-.2m.145.416a.41.41,0,0,1-.195.044.7.7,0,0,1-.218-.037l0,.023H21.4v-.692h.057v.232a1.413,1.413,0,0,1,.258-.04.26.26,0,0,1,.172.05.256.256,0,0,1,.076.206.233.233,0,0,1-.108.214" fill="#9e9e9e"></path></g><g id="Grupo_1969" data-name="Grupo 1969"><path id="Caminho_790" data-name="Caminho 790" d="M22.038,16.336v-.053c.028,0,.054,0,.072,0a.146.146,0,0,0,.152-.1l.019-.039-.256-.486h.066l.218.42h0l.208-.42h.064l-.274.546a.2.2,0,0,1-.2.132.549.549,0,0,1-.07,0" fill="#9e9e9e"></path></g><g id="Grupo_1970" data-name="Grupo 1970"><path id="Caminho_791" data-name="Caminho 791" d="M23.369,15.873h-.188v.17h.188c.13,0,.179-.015.179-.085s-.067-.085-.18-.085m-.034-.275H23.18v.173h.155c.128,0,.179-.016.179-.088s-.064-.085-.18-.085m.293.508a.562.562,0,0,1-.306.046h-.289V15.49h.282a.54.54,0,0,1,.28.042.14.14,0,0,1,.068.131.145.145,0,0,1-.1.147v0a.15.15,0,0,1,.139.156.141.141,0,0,1-.07.134" fill="#9e9e9e"></path></g><g id="Grupo_1971" data-name="Grupo 1971"><path id="Caminho_792" data-name="Caminho 792" d="M24.274,15.946c-.057-.005-.114-.008-.176-.008-.1,0-.134.02-.134.066s.029.065.1.065a1.012,1.012,0,0,0,.2-.028Zm.028.2,0-.028a1.173,1.173,0,0,1-.264.042.246.246,0,0,1-.147-.036.151.151,0,0,1-.019-.212.154.154,0,0,1,.047-.037.452.452,0,0,1,.183-.026c.05,0,.119,0,.176.007v-.009c0-.076-.05-.1-.187-.1-.053,0-.118,0-.179.008v-.1c.068-.006.145-.009.209-.009a.411.411,0,0,1,.227.045.18.18,0,0,1,.067.167v.288Z" fill="#9e9e9e"></path></g><g id="Grupo_1972" data-name="Grupo 1972"><path id="Caminho_793" data-name="Caminho 793" d="M25.045,16.15v-.268c0-.089-.045-.121-.126-.121a.9.9,0,0,0-.2.031v.358h-.135v-.487h.11l.005.031a1.15,1.15,0,0,1,.26-.044.239.239,0,0,1,.167.05.191.191,0,0,1,.053.152v.3Z" fill="#9e9e9e"></path></g><g id="Grupo_1973" data-name="Grupo 1973"><path id="Caminho_794" data-name="Caminho 794" d="M25.564,16.164a.276.276,0,0,1-.181-.051.252.252,0,0,1-.077-.207.237.237,0,0,1,.1-.208.391.391,0,0,1,.214-.048c.057,0,.111,0,.17.009v.1c-.049-.005-.108-.009-.155-.009-.129,0-.19.041-.19.152s.046.151.152.151a1.173,1.173,0,0,0,.2-.025v.1a1.261,1.261,0,0,1-.237.031" fill="#9e9e9e"></path></g><g id="Grupo_1974" data-name="Grupo 1974"><path id="Caminho_795" data-name="Caminho 795" d="M26.2,15.752c-.129,0-.186.041-.186.151s.057.158.186.158.184-.039.184-.15-.054-.159-.184-.159m.234.361a.415.415,0,0,1-.234.051.423.423,0,0,1-.234-.051.279.279,0,0,1,0-.412.562.562,0,0,1,.468,0,.228.228,0,0,1,.09.2.234.234,0,0,1-.09.207" fill="#9e9e9e"></path></g><g id="Grupo_1975" data-name="Grupo 1975"><path id="Caminho_796" data-name="Caminho 796" d="M27.311,16.164a.365.365,0,0,1-.237-.069.34.34,0,0,1-.1-.275.324.324,0,0,1,.134-.281.508.508,0,0,1,.28-.062c.073,0,.148,0,.23.011v.119c-.07-.006-.157-.011-.224-.011-.188,0-.268.071-.268.224s.074.224.213.224A1.539,1.539,0,0,0,27.629,16v.117a1.711,1.711,0,0,1-.318.042" fill="#9e9e9e"></path></g><g id="Grupo_1976" data-name="Grupo 1976"><path id="Caminho_797" data-name="Caminho 797" d="M28.028,15.737c-.114,0-.156.04-.165.113h.328c0-.079-.05-.113-.163-.113m-.02.426a.319.319,0,0,1-.207-.054.258.258,0,0,1-.078-.2.245.245,0,0,1,.092-.2.365.365,0,0,1,.213-.051.381.381,0,0,1,.211.049.26.26,0,0,1,.085.24h-.462c0,.075.043.123.179.123a1.891,1.891,0,0,0,.26-.025v.1a1.931,1.931,0,0,1-.293.032" fill="#9e9e9e"></path></g><g id="Grupo_1977" data-name="Grupo 1977"><path id="Caminho_798" data-name="Caminho 798" d="M28.929,16.15v-.268c0-.089-.045-.121-.126-.121a.9.9,0,0,0-.2.031v.358h-.136v-.487h.111l0,.031a1.15,1.15,0,0,1,.26-.044.239.239,0,0,1,.167.05.191.191,0,0,1,.053.152v.3Z" fill="#9e9e9e"></path></g><g id="Grupo_1978" data-name="Grupo 1978"><path id="Caminho_799" data-name="Caminho 799" d="M29.451,16.164a.177.177,0,0,1-.158-.07.252.252,0,0,1-.036-.147v-.182h-.1v-.1h.1l.015-.147h.12v.147h.191v.1h-.191v.156a.221.221,0,0,0,.013.092.087.087,0,0,0,.089.046.625.625,0,0,0,.1-.01v.1a.824.824,0,0,1-.141.018" fill="#9e9e9e"></path></g><g id="Grupo_1979" data-name="Grupo 1979"><path id="Caminho_800" data-name="Caminho 800" d="M29.717,16.15v-.487h.11l.005.031a.861.861,0,0,1,.241-.044h.018v.118h-.048a.776.776,0,0,0-.191.025v.359Z" fill="#9e9e9e"></path></g><g id="Grupo_1980" data-name="Grupo 1980"><path id="Caminho_801" data-name="Caminho 801" d="M30.585,15.946c-.057-.005-.114-.008-.176-.008-.1,0-.134.02-.134.066s.029.065.1.065a1.012,1.012,0,0,0,.2-.028Zm.028.2,0-.028a1.182,1.182,0,0,1-.264.042.244.244,0,0,1-.147-.036.133.133,0,0,1-.054-.117.137.137,0,0,1,.082-.132.447.447,0,0,1,.182-.026c.051,0,.119,0,.176.007v-.009c0-.076-.05-.1-.187-.1-.053,0-.117,0-.179.008v-.1c.069-.006.146-.009.209-.009a.409.409,0,0,1,.227.045.18.18,0,0,1,.067.167v.288Z" fill="#9e9e9e"></path></g><g id="Grupo_1981" data-name="Grupo 1981"><path id="Caminho_802" data-name="Caminho 802" d="M30.9,15.458h.136v.692H30.9Z" fill="#9e9e9e"></path></g></g><g id="Grupo_1988" data-name="Grupo 1988"><g id="Grupo_1983" data-name="Grupo 1983"><path id="Caminho_803" data-name="Caminho 803" d="M15.137,16.361a.189.189,0,0,1-.189-.188V10.655a2.031,2.031,0,0,1,2.028-2.028l1.628,0a2.029,2.029,0,0,1,2.021,2.026v1.174A2.03,2.03,0,0,1,18.6,13.856H16.3a.189.189,0,1,1,0-.377h2.3a1.652,1.652,0,0,0,1.649-1.65V10.655A1.65,1.65,0,0,0,18.6,9.008l-1.628,0a1.652,1.652,0,0,0-1.65,1.65v5.518A.189.189,0,0,1,15.137,16.361Z" fill="#9e9e9e"></path><path id="Caminho_804" data-name="Caminho 804" d="M15.137,16.262a.089.089,0,0,1-.089-.089V10.655a1.93,1.93,0,0,1,1.927-1.928l1.63,0a1.928,1.928,0,0,1,1.921,1.925v1.174A1.929,1.929,0,0,1,18.6,13.756H16.3a.089.089,0,1,1,0-.177h2.3a1.753,1.753,0,0,0,1.75-1.75V10.655A1.75,1.75,0,0,0,18.6,8.907l-1.63,0a1.752,1.752,0,0,0-1.749,1.75v5.518A.089.089,0,0,1,15.137,16.262Z" fill="#9e9e9e"></path></g><g id="Grupo_1984" data-name="Grupo 1984"><path id="Caminho_805" data-name="Caminho 805" d="M22.354,13.881a.188.188,0,0,1-.189-.189V9.57a.566.566,0,0,0-.566-.565h-.707a.189.189,0,1,1,0-.378H21.6a.944.944,0,0,1,.943.943v4.122A.188.188,0,0,1,22.354,13.881Z" fill="#9e9e9e"></path><path id="Caminho_806" data-name="Caminho 806" d="M22.353,13.781a.088.088,0,0,1-.089-.088V9.571A.666.666,0,0,0,21.6,8.9h-.707a.089.089,0,1,1,0-.178H21.6a.844.844,0,0,1,.843.844v4.122A.088.088,0,0,1,22.353,13.781Z" fill="#9e9e9e"></path></g><g id="Grupo_1985" data-name="Grupo 1985"><path id="Caminho_807" data-name="Caminho 807" d="M22.345,8.337a.305.305,0,0,1-.215-.089h0l-.32-.319a.3.3,0,0,1,0-.429l.322-.321a.31.31,0,0,1,.429,0l.32.32a.3.3,0,0,1,0,.429l-.322.321A.3.3,0,0,1,22.345,8.337Zm-.074-.23a.107.107,0,0,0,.146,0l.323-.321a.1.1,0,0,0,0-.147l-.319-.32a.108.108,0,0,0-.147,0l-.322.321a.1.1,0,0,0,0,.147l.32.319Z" fill="#9e9e9e"></path><path id="Caminho_808" data-name="Caminho 808" d="M22.2,8.177l-.321-.32a.2.2,0,0,1,0-.288h0l.321-.321a.2.2,0,0,1,.288,0l.32.321a.2.2,0,0,1,0,.288h0l-.321.32a.2.2,0,0,1-.288,0h0" fill="#9e9e9e"></path></g><g id="Grupo_1986" data-name="Grupo 1986"><path id="Caminho_809" data-name="Caminho 809" d="M27.4,11.2a.73.73,0,0,1-.518-.215L25.239,9.344A1.163,1.163,0,0,0,24.411,9h-.7a.189.189,0,1,1,0-.377h.7a1.541,1.541,0,0,1,1.1.452l1.639,1.64a.355.355,0,0,0,.5,0l1.635-1.634a1.538,1.538,0,0,1,1.093-.454h.571a.19.19,0,0,1,0,.379h-.57a1.166,1.166,0,0,0-.828.342l-1.633,1.632A.725.725,0,0,1,27.4,11.2Z" fill="#9e9e9e"></path><path id="Caminho_810" data-name="Caminho 810" d="M27.4,11.1h0a.625.625,0,0,1-.447-.186l-1.64-1.639a1.258,1.258,0,0,0-.9-.372h-.7a.089.089,0,0,1,0-.178h.7a1.439,1.439,0,0,1,1.023.424l1.64,1.64a.447.447,0,0,0,.321.133h0a.451.451,0,0,0,.321-.133h0l1.633-1.634a1.44,1.44,0,0,1,1.023-.423h.571a.089.089,0,1,1,0,.177h-.571a1.259,1.259,0,0,0-.9.372l-1.633,1.633h0A.629.629,0,0,1,27.4,11.1Z" fill="#9e9e9e"></path></g><g id="Grupo_1987" data-name="Grupo 1987"><path id="Caminho_811" data-name="Caminho 811" d="M23.71,13.845a.189.189,0,1,1,0-.377h.7a1.163,1.163,0,0,0,.828-.343l1.64-1.639a.73.73,0,0,1,1.035,0l1.633,1.633a1.167,1.167,0,0,0,.828.343h.57a.189.189,0,1,1,0,.377h-.57a1.534,1.534,0,0,1-1.094-.453l-1.634-1.633a.355.355,0,0,0-.5,0l-1.639,1.639a1.538,1.538,0,0,1-1.1.453Z" fill="#9e9e9e"></path><path id="Caminho_812" data-name="Caminho 812" d="M24.411,13.745h-.7a.089.089,0,1,1,0-.177h.7a1.26,1.26,0,0,0,.9-.372l1.64-1.64a.635.635,0,0,1,.9,0l1.633,1.634a1.262,1.262,0,0,0,.9.372h.57a.089.089,0,1,1,0,.177h-.57a1.44,1.44,0,0,1-1.024-.423l-1.633-1.634a.456.456,0,0,0-.643,0l-1.64,1.64A1.439,1.439,0,0,1,24.411,13.745Z" fill="#9e9e9e"></path></g></g></g></g></g></svg>