<svg id="SEARCH2_32" xmlns="http://www.w3.org/2000/svg" width="32" height="32" viewBox="0 0 32 32">
  <rect id="LAYER" width="32" height="32" fill="rgba(229,0,19,0)" opacity="0.3"/>
  <path id="SEARCH2_32-2" data-name="SEARCH2_32" d="M24,23.37l-4.76-4.74a6.273,6.273,0,0,0,1.13-1.91,6.465,6.465,0,0,0,.44-2.33A6.335,6.335,0,0,0,14.4,8,6.351,6.351,0,0,0,8,14.4a6.351,6.351,0,0,0,6.4,6.4,6.726,6.726,0,0,0,4.21-1.54L23.37,24Zm-9.6-3.38A5.532,5.532,0,0,1,8.81,14.4,5.515,5.515,0,0,1,14.4,8.82a5.5,5.5,0,0,1,5.58,5.58,5.515,5.515,0,0,1-5.58,5.59Z"/>
</svg>
