 <svg
            xmlns="http://www.w3.org/2000/svg"
            width="35"
            height="24"
            viewBox="0 0 35 24"
          >
            <defs></defs>
            <g fill="#fff">
              <path
                stroke="none"
                d="M 32.8125 23.5 L 2.1875 23.5 C 1.257009983062744 23.5 0.5 22.82710075378418 0.5 22 L 0.5 2 C 0.5 1.172899961471558 1.257009983062744 0.5 2.1875 0.5 L 32.8125 0.5 C 33.49171829223633 0.5 34.22648239135742 1.61038076877594 34.5 2.121090412139893 L 34.5 22 C 34.5 22.82710075378418 33.74298858642578 23.5 32.8125 23.5 Z"
              ></path>
              <path
                stroke="none"
                fill="#bbb"
                d="M 2.1875 1 C 1.532711029052734 1 1 1.448600769042969 1 2 L 1 22 C 1 22.55139923095703 1.532711029052734 23 2.1875 23 L 32.8125 23 C 33.46728897094727 23 34 22.55139923095703 34 22 L 34 2.252801895141602 C 33.90564727783203 2.0885009765625 33.75121307373047 1.839521408081055 33.55681991577148 1.597600936889648 C 33.1769905090332 1.124900817871094 32.90386199951172 1 32.8125 1 L 2.1875 1 M 2.1875 0 L 32.8125 0 C 34.0206184387207 0 35 2 35 2 L 35 22 C 35 23.10457038879395 34.0206184387207 24 32.8125 24 L 2.1875 24 C 0.9793815612792969 24 0 23.10457038879395 0 22 L 0 2 C 0 0.8954296112060547 0.9793815612792969 0 2.1875 0 Z"
              ></path>
            </g>
            <path
              fill="#9e9e9e"
              d="M13.638,10.5a.462.462,0,0,0-.293-.444,1.6,1.6,0,0,0-.69-.1H11.342v2.015h.575v-.734h.613a.586.586,0,0,1,.407.089c.1.093.089.272.089.393v.25h.562v-.4a.531.531,0,0,0-.092-.369.646.646,0,0,0-.281-.167l.017-.006a.573.573,0,0,0,.409-.534Zm-.741.291h-.024a.628.628,0,0,1-.281.041H11.9v-.45h.7a.7.7,0,0,1,.281.036.188.188,0,0,1,.128.182.205.205,0,0,1-.114.193Zm4.387.752h-1.1v.429h1.11c.576,0,.894-.2.894-.632a.515.515,0,0,0-.159-.416,1.137,1.137,0,0,0-.622-.148l-.32-.011a.669.669,0,0,1-.217-.021.156.156,0,0,1-.128-.15.148.148,0,0,1,.077-.15.489.489,0,0,1,.232-.043h1.047v-.43h-1.15c-.6,0-.816.312-.816.6,0,.643.661.611,1.2.622a.3.3,0,0,1,.192.043.153.153,0,0,1,.07.129.151.151,0,0,1-.068.129.4.4,0,0,1-.236.05ZM0,3V7.442L.69,6.1H2.18l.192.332V6.1h1.74l.383.729.372-.724H10.4a1.042,1.042,0,0,1,.644.169V6.111H12.57v.164a2.277,2.277,0,0,1,.954-.164h2.219l.2.333V6.111H17.58l.216.332V6.11h1.582V8.931H17.773L17.466,8.5V8.92h-2l-.218-.45h-.5l-.23.439H13.485a2.173,2.173,0,0,1-.92-.171v.171H10.1V8.277c0-.086-.026-.086-.089-.1H9.925v.74H5.167V8.578l-.179.343H3.994l-.172-.343V8.91H1.9l-.218-.446H1.192L.974,8.91H0v5.695H20.256V12.3a2.2,2.2,0,0,1-.829.129H17.96v-.182a1.53,1.53,0,0,1-.778.182H12.527v-.643c0-.086-.015-.086-.1-.086h-.064v.73H10.828v-.762a2.031,2.031,0,0,1-.79.1H9.856v.654H8l-.46-.441-.485.429H4.038V9.6H7.113l.441.43L8.026,9.6H10.08a1.517,1.517,0,0,1,.8.161V9.588h1.854a1.787,1.787,0,0,1,.769.161V9.577h2.78v.171a1.193,1.193,0,0,1,.684-.171h1.61v.171a1.291,1.291,0,0,1,.715-.171h1V3Zm18.017,7.914s.005.009.009.011.02.007.027.014l-.036-.025Zm2.275-1.338h.055v.4h-.055Zm.032,1.392v0c-.026-.018-.039-.034-.064-.05a1.028,1.028,0,0,0-.651-.161l-.307-.009a.888.888,0,0,1-.23-.021.156.156,0,0,1-.128-.15.161.161,0,0,1,.077-.146.483.483,0,0,1,.23-.036h1.042v-.42H19.2c-.588,0-.818.312-.818.6,0,.643.664.611,1.2.622a.3.3,0,0,1,.191.043.15.15,0,0,1,.065.129.155.155,0,0,1-.077.129c-.038.04-.116.05-.23.05h-1.1v.432h1.1a.963.963,0,0,0,.766-.257h.026a.569.569,0,0,0,.115-.374.555.555,0,0,0-.115-.376Zm-4.486-.587V9.964h-1.9v2.024h1.9V11.57H14.5v-.407h1.306v-.417H14.5v-.364m-3-3.874h.583v2.01h-.582Zm-.327.54-.006,0a.463.463,0,0,0-.29-.446,1.575,1.575,0,0,0-.69-.1H8.882V8.524h.574V7.785h.613a.676.676,0,0,1,.415.086c.1.1.091.27.091.392v.253h.577v-.4a.511.511,0,0,0-.094-.369.682.682,0,0,0-.281-.169.577.577,0,0,0,.4-.536Zm-.728.283h-.013a.62.62,0,0,1-.281.04h-.7V6.925h.7a.751.751,0,0,1,.281.036.185.185,0,0,1,.128.179.2.2,0,0,1-.114.19Zm3.107-.4H14.1V6.5h-.548a1.3,1.3,0,0,0-.869.236.984.984,0,0,0-.308.793.92.92,0,0,0,.307.767,1.353,1.353,0,0,0,.826.222h.664l.217-.448h1.184l.223.448h1.158V7.007l1.083,1.508h.811V6.506h-.582v1.4l-1-1.4h-.869V8.374l-.965-1.9h-.855l-.8,1.586h-.255a.661.661,0,0,1-.4-.1.632.632,0,0,1-.158-.473.507.507,0,0,1,.6-.568Zm1.42-.077.4.8h-.792ZM2.027,8.067l.216.449H3.406V6.94l.828,1.576h.5L5.56,6.942l.013,1.573H6.16V6.507H5.21L4.523,7.868,3.777,6.507h-.93v1.9l-.969-1.9H1.029L.009,8.515H.622l.221-.447H2.027ZM1.441,6.848l.392.8H1.051l.389-.8ZM10.1,9.96H8.272l-.724.66-.7-.659H4.553v2.015h2.26l.728-.666.7.665H9.351V11.3h.714c.511,0,1-.117,1-.675l-.005,0c0-.557-.509-.665-.961-.665Zm-3.565,1.6H5.127v-.4H6.379v-.41H5.127v-.364H6.557l.624.586-.651.589Zm2.25.236-.877-.82.877-.792v1.61Zm1.323-.9H9.351V10.38H10.1c.2,0,.358.07.358.246s-.128.266-.358.266ZM8.488,6.925V6.507H6.583v2.01H8.488V8.1H7.153V7.7h1.3V7.288h-1.3V6.925"
              transform="translate(7.281 3.175)"
            ></path>
          </svg>