<svg xmlns="http://www.w3.org/2000/svg" width="119" height="40" viewBox="0 0 119 40"><defs></defs><g transform="translate(0 0)"><path fill="#a6a6a6" d="M109.524,0H9.482c-.365,0-.725,0-1.089,0-.3,0-.606.008-.914.013A13.07,13.07,0,0,0,5.486.191,6.6,6.6,0,0,0,3.6.818,6.4,6.4,0,0,0,1.986,2,6.257,6.257,0,0,0,.815,3.618a6.627,6.627,0,0,0-.622,1.9,13.063,13.063,0,0,0-.178,2C.006,7.83,0,8.138,0,8.444V31.559c0,.31.006.611.015.922a13.063,13.063,0,0,0,.178,2,6.613,6.613,0,0,0,.622,1.9A6.206,6.206,0,0,0,1.986,38,6.241,6.241,0,0,0,3.6,39.18a6.638,6.638,0,0,0,1.89.631,13.308,13.308,0,0,0,1.993.177c.307.007.609.011.914.011.364,0,.724,0,1.089,0H109.524c.357,0,.721,0,1.078,0,.3,0,.614,0,.917-.011a13.134,13.134,0,0,0,1.989-.177,6.741,6.741,0,0,0,1.9-.631A6.245,6.245,0,0,0,117.013,38a6.393,6.393,0,0,0,1.175-1.614,6.63,6.63,0,0,0,.616-1.9,13.579,13.579,0,0,0,.185-2c0-.311,0-.611,0-.922.008-.363.008-.725.008-1.094V9.536c0-.366,0-.729-.008-1.092,0-.307,0-.614,0-.921a13.579,13.579,0,0,0-.185-2,6.644,6.644,0,0,0-.616-1.9A6.448,6.448,0,0,0,115.4.818a6.7,6.7,0,0,0-1.9-.627,12.9,12.9,0,0,0-1.989-.177c-.3,0-.614-.011-.917-.013-.357,0-.721,0-1.078,0Z"></path><path d="M8.4,39.125c-.3,0-.6,0-.9-.011a12.547,12.547,0,0,1-1.859-.163A5.828,5.828,0,0,1,4,38.4a5.377,5.377,0,0,1-1.389-1.017,5.319,5.319,0,0,1-1.015-1.4,5.745,5.745,0,0,1-.54-1.657,12.482,12.482,0,0,1-.166-1.875c-.006-.211-.015-.913-.015-.913V8.444s.009-.691.015-.895a12.439,12.439,0,0,1,.165-1.872,5.778,5.778,0,0,1,.54-1.662A5.372,5.372,0,0,1,2.6,2.618,5.536,5.536,0,0,1,4,1.6,5.768,5.768,0,0,1,5.64,1.051,12.446,12.446,0,0,1,7.505.887L8.4.875h102.19l.908.013a12.248,12.248,0,0,1,1.848.163,5.882,5.882,0,0,1,1.661.548,5.578,5.578,0,0,1,2.4,2.42,5.786,5.786,0,0,1,.532,1.649,13.069,13.069,0,0,1,.173,1.887c0,.283,0,.587,0,.89.008.375.008.732.008,1.092V30.465c0,.363,0,.718-.008,1.075,0,.325,0,.623,0,.93a12.8,12.8,0,0,1-.17,1.854,5.762,5.762,0,0,1-.537,1.67,5.479,5.479,0,0,1-1.01,1.386,5.384,5.384,0,0,1-1.392,1.022,5.806,5.806,0,0,1-1.659.55,12.4,12.4,0,0,1-1.859.163c-.291.007-.6.011-.892.011l-1.078,0Z" transform="translate(0)"></path><path fill="#fff" d="M24.769,20.3a4.949,4.949,0,0,1,2.357-4.152,5.066,5.066,0,0,0-3.991-2.158c-1.679-.176-3.307,1-4.163,1-.872,0-2.19-.987-3.608-.958a5.315,5.315,0,0,0-4.473,2.728c-1.934,3.348-.491,8.269,1.361,10.976.927,1.325,2.01,2.806,3.428,2.753,1.387-.058,1.905-.884,3.579-.884,1.659,0,2.145.884,3.591.851,1.488-.024,2.426-1.331,3.321-2.669A10.962,10.962,0,0,0,27.688,24.7,4.782,4.782,0,0,1,24.769,20.3Z"></path><path fill="#fff" d="M22.037,12.211A4.872,4.872,0,0,0,23.152,8.72a4.957,4.957,0,0,0-3.208,1.66A4.636,4.636,0,0,0,18.8,13.741,4.1,4.1,0,0,0,22.037,12.211Z"></path><path fill="#fff" d="M42.3,27.14H37.569L36.432,30.5h-2l4.483-12.418h2.083L45.477,30.5H43.438Zm-4.243-1.549h3.752l-1.85-5.447H39.91Z"></path><path fill="#fff" d="M55.16,25.97c0,2.813-1.506,4.621-3.778,4.621a3.069,3.069,0,0,1-2.849-1.584H48.49v4.484H46.631V21.442h1.8v1.506h.034a3.212,3.212,0,0,1,2.883-1.6C53.645,21.348,55.16,23.164,55.16,25.97Zm-1.91,0c0-1.833-.947-3.038-2.393-3.038-1.42,0-2.375,1.23-2.375,3.038,0,1.824.955,3.046,2.375,3.046C52.3,29.016,53.25,27.819,53.25,25.97Z"></path><path fill="#fff" d="M65.125,25.97c0,2.813-1.506,4.621-3.778,4.621A3.069,3.069,0,0,1,58.5,29.007h-.043v4.484H56.6V21.442h1.8v1.506h.034a3.212,3.212,0,0,1,2.883-1.6C63.61,21.348,65.125,23.164,65.125,25.97Zm-1.91,0c0-1.833-.947-3.038-2.393-3.038-1.42,0-2.375,1.23-2.375,3.038,0,1.824.955,3.046,2.375,3.046,1.445,0,2.393-1.2,2.393-3.046Z"></path><path fill="#fff" d="M71.71,27.036c.138,1.231,1.334,2.04,2.969,2.04,1.566,0,2.693-.809,2.693-1.919,0-.964-.68-1.541-2.289-1.937l-1.609-.388c-2.28-.551-3.339-1.617-3.339-3.348,0-2.143,1.867-3.614,4.519-3.614,2.624,0,4.423,1.472,4.483,3.614H77.261c-.112-1.239-1.137-1.987-2.634-1.987s-2.521.757-2.521,1.858c0,.878.654,1.395,2.255,1.79l1.368.336c2.548.6,3.606,1.626,3.606,3.442,0,2.323-1.851,3.778-4.794,3.778-2.754,0-4.613-1.421-4.733-3.667Z"></path><path fill="#fff" d="M83.346,19.3v2.143h1.722v1.472H83.346v4.991c0,.775.345,1.137,1.1,1.137A5.807,5.807,0,0,0,85.059,29v1.463a5.1,5.1,0,0,1-1.032.086c-1.833,0-2.548-.688-2.548-2.444V22.914H80.163V21.442h1.316V19.3Z"></path><path fill="#fff" d="M86.065,25.97c0-2.849,1.678-4.639,4.294-4.639s4.295,1.79,4.295,4.639-1.661,4.639-4.295,4.639S86.065,28.826,86.065,25.97Zm6.7,0c0-1.954-.9-3.107-2.4-3.107s-2.4,1.162-2.4,3.107c0,1.962.895,3.106,2.4,3.106s2.4-1.145,2.4-3.106Z"></path><path fill="#fff" d="M96.186,21.442h1.772v1.541H98a2.159,2.159,0,0,1,2.178-1.636,2.866,2.866,0,0,1,.637.069v1.738a2.6,2.6,0,0,0-.835-.112,1.873,1.873,0,0,0-1.937,2.083V30.5H96.186Z"></path><path fill="#fff" d="M109.384,27.837c-.25,1.644-1.851,2.771-3.9,2.771-2.634,0-4.269-1.765-4.269-4.6s1.644-4.682,4.19-4.682c2.5,0,4.08,1.721,4.08,4.466v.637h-6.395v.112a2.358,2.358,0,0,0,2.436,2.564,2.048,2.048,0,0,0,2.091-1.273Zm-6.282-2.7h4.526a2.177,2.177,0,0,0-2.221-2.3,2.292,2.292,0,0,0-2.306,2.3Z"></path><path fill="#fff" d="M35.671,14.7V8.731h2.4c1.121,0,1.795.57,1.795,1.488A1.308,1.308,0,0,1,38.818,11.5v.07a1.411,1.411,0,0,1,1.344,1.435c0,1.05-.765,1.691-2.039,1.691Zm.927-3.44h1.1c.819,0,1.245-.3,1.245-.868,0-.55-.4-.873-1.088-.873H36.6Zm1.34,2.655c.835,0,1.277-.339,1.277-.972s-.459-.951-1.331-.951H36.6v1.923Z"></path><path fill="#fff" d="M41.114,13.424c0-.811.6-1.278,1.675-1.344l1.22-.07v-.389c0-.476-.314-.744-.922-.744-.5,0-.84.182-.938.5h-.86c.091-.773.818-1.27,1.84-1.27,1.129,0,1.766.562,1.766,1.513V14.7h-.855v-.633h-.07a1.515,1.515,0,0,1-1.353.707,1.36,1.36,0,0,1-1.5-1.348Zm2.895-.385v-.376l-1.1.07c-.62.042-.9.252-.9.649s.352.641.835.641a1.062,1.062,0,0,0,1.166-.984Z"></path><path fill="#fff" d="M46.169,8.863a.576.576,0,1,1,.575.541.547.547,0,0,1-.575-.541Zm.132,1.332h.886v4.5H46.3Z"></path><path fill="#fff" d="M50.236,13.1l-.984,1.6h-.976l1.493-2.241-1.506-2.262H49.3l.968,1.588h.07l.959-1.588h.988L50.8,12.419,52.3,14.7H51.283l-.98-1.6Z"></path><path fill="#fff" d="M53.088,13.424c0-.811.6-1.278,1.675-1.344l1.22-.07v-.389c0-.476-.314-.744-.922-.744-.5,0-.84.182-.938.5h-.86c.091-.773.818-1.27,1.84-1.27,1.129,0,1.766.562,1.766,1.513V14.7h-.855v-.633h-.07a1.515,1.515,0,0,1-1.353.707,1.36,1.36,0,0,1-1.5-1.348Zm2.895-.385v-.376l-1.1.07c-.62.042-.9.252-.9.649s.352.641.835.641a1.062,1.062,0,0,0,1.166-.984Z"></path><path fill="#fff" d="M58.259,10.195h.855v.69h.066A1.221,1.221,0,0,1,60.4,10.12a1.868,1.868,0,0,1,.4.037v.877a2.434,2.434,0,0,0-.5-.054,1.055,1.055,0,0,0-1.149,1.059V14.7h-.889Z"></path><path fill="#fff" d="M64.218,10.195h.856v.715h.066a1.348,1.348,0,0,1,1.344-.8,1.465,1.465,0,0,1,1.559,1.675V14.7h-.889V12.006c0-.724-.314-1.083-.972-1.083a1.033,1.033,0,0,0-1.075,1.141V14.7h-.889Z"></path><path fill="#fff" d="M69.161,13.424c0-.811.6-1.278,1.675-1.344l1.22-.07v-.389c0-.476-.314-.744-.922-.744-.5,0-.84.182-.938.5h-.86c.091-.773.818-1.27,1.84-1.27,1.129,0,1.766.562,1.766,1.513V14.7h-.855v-.633h-.07a1.515,1.515,0,0,1-1.353.707,1.36,1.36,0,0,1-1.5-1.348Zm2.895-.385v-.376l-1.1.07c-.62.042-.9.252-.9.649s.352.641.835.641a1.061,1.061,0,0,0,1.166-.984Z"></path></g></svg>