<svg width="16" height="16" viewBox="0 0 16 16" fill="none" xmlns="http://www.w3.org/2000/svg">
<path fill-rule="evenodd" clip-rule="evenodd" d="M4.02582 7.91483C3.0963 7.91483 2.34616 8.68862 2.34616 9.63884C2.34616 10.5891 3.0963 11.3628 4.02582 11.3628C4.95533 11.3628 5.70547 10.5891 5.70547 9.63884C5.70547 8.68862 4.95533 7.91483 4.02582 7.91483ZM1.45728 9.63884C1.45728 8.17804 2.60912 6.99731 4.02582 6.99731C5.44252 6.99731 6.59436 8.17804 6.59436 9.63884C6.59436 11.0996 5.44252 12.2804 4.02582 12.2804C2.60912 12.2804 1.45728 11.0996 1.45728 9.63884Z" fill="black"></path>
<path fill-rule="evenodd" clip-rule="evenodd" d="M0 15.7126C0 13.488 1.6561 11.5526 3.95382 11.5526C6.23656 11.5526 8 13.472 8 15.7126V15.9973H7.11111V15.7126C7.11111 13.9672 5.73458 12.4701 3.95382 12.4701C2.18806 12.4701 0.888889 13.9513 0.888889 15.7126V15.9973H0V15.7126Z" fill="black"></path>
<path fill-rule="evenodd" clip-rule="evenodd" d="M6.09998 0.499975C6.09998 0.279062 6.27906 0.0999756 6.49998 0.0999756H15.5C15.7209 0.0999756 15.9 0.279062 15.9 0.499975V5.49997C15.9 5.72088 15.7209 5.89997 15.5 5.89997H12.2228C12.1982 5.89997 12.1744 5.9091 12.156 5.92559L8.96038 8.79748C8.84293 8.90303 8.67437 8.92961 8.53014 8.86531C8.38591 8.80101 8.29301 8.65788 8.29301 8.49997V5.99997C8.29301 5.94474 8.24824 5.89997 8.19301 5.89997H6.49998C6.27906 5.89997 6.09998 5.72088 6.09998 5.49997V0.499975ZM6.99998 0.899975C6.94475 0.899975 6.89998 0.944746 6.89998 0.999975V4.99997C6.89998 5.0552 6.94475 5.09997 6.99998 5.09997H8.69301C8.91392 5.09997 9.09301 5.27906 9.09301 5.49997V7.37838C9.09301 7.41785 9.11624 7.45364 9.15229 7.46971C9.18835 7.48579 9.23049 7.47914 9.25985 7.45275L11.7638 5.20246C11.8372 5.13648 11.9325 5.09997 12.0312 5.09997H15C15.0552 5.09997 15.1 5.0552 15.1 4.99997V0.999975C15.1 0.944746 15.0552 0.899975 15 0.899975H6.99998Z" fill="black"></path>
</svg>