<svg xmlns="http://www.w3.org/2000/svg" width="35" height="24" viewBox="0 0 35 24"><g fill="#fff" stroke="#bbb"><rect stroke="none" width="35" height="24" rx="2"></rect><rect fill="none" x="0.5" y="0.5" width="34" height="23" rx="1.5"></rect></g><path fill="#9e9e9e" d="M18.9,8.648a5.407,5.407,0,0,0-1.885-.326c-2.08,0-3.548,1.049-3.559,2.551-.013,1.1,1.044,1.727,1.843,2.1.82.379,1.094.618,1.092.959-.005.517-.655.751-1.259.751a4.453,4.453,0,0,1-1.984-.406l-.259-.12-.294,1.731a7.04,7.04,0,0,0,2.356.406c2.211,0,3.656-1.041,3.674-2.642.017-.881-.552-1.549-1.756-2.1-.73-.358-1.185-.6-1.185-.96,0-.321.389-.663,1.2-.663a3.857,3.857,0,0,1,1.576.3l.195.088.294-1.673-.051.011Zm5.4-.184H22.672a1.051,1.051,0,0,0-1.106.64l-3.125,7.078h2.211l.442-1.159,2.7,0c.066.271.26,1.157.26,1.157H26ZM10.465,8.4h2.1l-1.316,7.723H9.148L10.465,8.4ZM5.114,12.655l.219,1.073L7.393,8.464H9.623L6.307,16.172H4.082L2.262,9.644a.431.431,0,0,0-.195-.257A8.9,8.9,0,0,0,0,8.621l.027-.163H3.419a.881.881,0,0,1,.957.654l.739,3.546v0Zm16.584.788.84-2.16c-.011.022.173-.446.279-.737l.144.666.486,2.228H21.7v0Z" transform="translate(4.333 -0.328)"></path></svg>