<svg width="16" height="16" viewBox="0 0 16 16" fill="none" xmlns="http://www.w3.org/2000/svg">
                        <path fill-rule="evenodd" clip-rule="evenodd" d="M9.19986 8.86941L8.71167 9.34701L8.55911 9.26572C7.76581 8.84908 7.12506 8.20889 6.71824 7.41627L6.6267 7.25368L7.06404 6.82688L6.13852 5.30261C5.8334 5.40423 5.57914 5.61763 5.40624 5.90216C5.26385 6.19685 5.23334 6.53219 5.30453 6.84721C5.55879 7.74144 6.04698 8.56455 6.72841 9.20474C7.35899 9.90591 8.16246 10.4038 9.06764 10.6579C9.3931 10.7392 9.7389 10.7087 10.044 10.5563C10.339 10.3835 10.5627 10.1091 10.6848 9.79413L9.19986 8.86941Z" fill="black"></path>
                        <path fill-rule="evenodd" clip-rule="evenodd" d="M13.8986 6.90815C13.7359 6.00375 13.3494 5.12984 12.79 4.38802C12.2306 3.64621 11.4983 3.0365 10.6745 2.63003C9.87105 2.22356 8.96586 2.01016 8.07085 2H7.99966C7.99966 2 7.99966 2 7.98949 2C6.91141 2 5.8435 2.29469 4.90781 2.85359C3.97211 3.41249 3.20932 4.21527 2.70079 5.18064C2.19226 6.13585 1.94817 7.22317 2.00919 8.30032C2.07022 9.38763 2.41602 10.4343 3.02625 11.3387L3.05676 11.3793L2.32448 13.8182C2.32448 13.8283 2.32448 13.8385 2.33465 13.8487C2.33465 13.8487 2.34482 13.8588 2.34482 13.869H2.39568L4.76542 13.0459L4.8061 13.0764C5.58924 13.5641 6.49442 13.8791 7.40977 13.9706C8.33529 14.0621 9.27098 13.9401 10.1355 13.6048C11 13.2796 11.7831 12.741 12.4137 12.0602C13.0443 11.3793 13.5121 10.5461 13.7664 9.662C14.0206 8.76776 14.0715 7.82271 13.8986 6.90815ZM13.1256 9.46892C12.9019 10.2615 12.4849 10.9932 11.9255 11.6029C11.3661 12.2024 10.6644 12.6801 9.90156 12.9747C9.30149 13.2085 8.65058 13.3202 7.99966 13.3202C7.82676 13.3202 7.65386 13.3101 7.48096 13.2898C6.66732 13.2085 5.86384 12.9341 5.16207 12.4971L4.84678 12.3041L3.31103 12.8325L3.78904 11.2676L3.58563 10.9627C3.03642 10.1701 2.72113 9.2352 2.67028 8.26983C2.61943 7.30446 2.83301 6.34925 3.29069 5.49566C3.74836 4.64207 4.41962 3.93074 5.25361 3.43281C6.07742 2.93489 7.03346 2.67068 7.98949 2.67068C7.98949 2.67068 7.98949 2.67068 7.99966 2.67068H8.20307C8.96587 2.70116 9.69815 2.88408 10.3796 3.22958C11.1119 3.5954 11.7628 4.13398 12.2611 4.7945C12.7595 5.44485 13.0951 6.22731 13.2477 7.03009C13.3901 7.84304 13.3494 8.68647 13.1256 9.46892Z" fill="black"></path>
                      </svg>