<svg id="SHOP2_32" xmlns="http://www.w3.org/2000/svg" width="32" height="32" viewBox="0 0 32 32">
  <rect id="LAYER" width="32" height="32" fill="rgba(0,0,0,0)" opacity="0.3"/>
  <g id="SHOP2_32-2" data-name="SHOP2_32">
    <path id="Caminho_55" data-name="Caminho 55" d="M20.31,12.06C20.24,9.26,18.32,7,16,7s-4.25,2.26-4.31,5.06H7l1.58,12.9.01.04H23.41L25,12.06ZM16,8c1.74,0,3.2,1.82,3.26,4.06H12.75C12.8,9.82,14.26,8,16,8ZM9.67,23.99,8.16,13.07H23.84L22.33,23.99Z" fill="#fff"/>
    <path id="Caminho_56" data-name="Caminho 56" d="M12.21,13.32a.78.78,0,1,0,.78.78A.781.781,0,0,0,12.21,13.32Z"  fill="#fff"/>
    <path id="Caminho_57" data-name="Caminho 57" d="M19.79,13.32a.78.78,0,1,0,.78.78A.794.794,0,0,0,19.79,13.32Z"  fill="#fff"/>
  </g>
</svg>
