<svg id="SHOPPINGBAG2_32" xmlns="http://www.w3.org/2000/svg" width="32" height="32" viewBox="0 0 32 32">
  <rect id="LAYER" width="32" height="32" fill="rgba(229,0,19,0)" opacity="0.3"/>
  <path id="SHOPPINGBAG_32" d="M22.51,11.53a1.706,1.706,0,0,0-1.23-.49H19.6v-.45A3.585,3.585,0,0,0,16,7a3.585,3.585,0,0,0-3.6,3.59v.45H10.73a1.65,1.65,0,0,0-1.23.49A1.674,1.674,0,0,0,9,12.76V23.28a1.689,1.689,0,0,0,.49,1.23,1.666,1.666,0,0,0,1.23.49H21.27a1.65,1.65,0,0,0,1.23-.49,1.689,1.689,0,0,0,.49-1.23V12.76A1.658,1.658,0,0,0,22.51,11.53ZM21.28,23.89H10.72a.561.561,0,0,1-.41-.19.577.577,0,0,1-.19-.41V12.76a.561.561,0,0,1,.19-.41.577.577,0,0,1,.41-.19h1.67v2.48a.6.6,0,0,0,.16.4.574.574,0,0,0,.79,0,.535.535,0,0,0,.16-.4V12.16h4.97v2.48a.6.6,0,0,0,.16.4.574.574,0,0,0,.79,0,.535.535,0,0,0,.16-.4V12.16h1.67a.561.561,0,0,1,.41.19.577.577,0,0,1,.19.41V23.28a.561.561,0,0,1-.19.41A.484.484,0,0,1,21.28,23.89ZM13.52,11.04v-.45A2.426,2.426,0,0,1,16,8.11a2.442,2.442,0,0,1,2.49,2.48v.45Z" fill="#231916"/>
</svg>
